<?xml version="1.0" encoding="UTF-8" standalone="no"?>
<svg
   version="1.1"
   x="0px"
   y="0px"
   viewBox="0 0 703.41175 201.49869"
   xml:space="preserve"
   height="50.374672"
   width="94.12709"
   id="svg8"
   sodipodi:docname="logo_white.svg"
   inkscape:version="1.4.3 (0d15f75042, 2025-12-25)"
   xmlns:inkscape="http://www.inkscape.org/namespaces/inkscape"
   xmlns:sodipodi="http://sodipodi.sourceforge.net/DTD/sodipodi-0.dtd"
   xmlns="http://www.w3.org/2000/svg"
   xmlns:svg="http://www.w3.org/2000/svg"><defs
   id="defs8" /><sodipodi:namedview
   id="namedview8"
   pagecolor="#ffffff"
   bordercolor="#000000"
   borderopacity="0.25"
   inkscape:showpageshadow="2"
   inkscape:pageopacity="0.0"
   inkscape:pagecheckerboard="0"
   inkscape:deskcolor="#d1d1d1"
   inkscape:zoom="6.82"
   inkscape:cx="40.102639"
   inkscape:cy="25.073314"
   inkscape:window-width="1504"
   inkscape:window-height="933"
   inkscape:window-x="0"
   inkscape:window-y="0"
   inkscape:window-maximized="1"
   inkscape:current-layer="svg8" />
<style
   type="text/css"
   id="style1">.st0 { fill: #ffffff; }.st1 { fill: #ff0100; }.st2 { fill: #85ab1c; }.st3 { }.st4 { fill: #197dc1; }.st5 { fill: #39b549; }</style>

<g
   id="g9"
   transform="translate(-21.897708,-99.17562)"><g
     id="Layer_1">
</g><g
     id="Layer_2">
	<g
   id="g8">
		<g
   id="g6">
			<g
   id="g5">
				<path
   class="st0"
   d="m 297.7,295.7 c -2.9,0.4 -5.6,3 -8.3,3 -0.5,0 -2.1,-0.3 -2.3,-1.4 V 219 c 0,-10.1 -1.5,-15.7 -9.5,-22.8 -11,-9.8 -32.4,-12.3 -42.4,-12.3 -15.8,0 -38.8,3.9 -50.8,17.6 -7.1,8.1 -10.5,25.1 -5.2,36.4 1.3,2.7 4.8,1 4.8,1 l 34.6,-10 c 2.8,-1.6 1.7,-3.9 1.7,-3.9 -0.6,-3.4 -1,-10.3 -1,-10.3 0,-5.9 3,-12.3 11.8,-12.3 6.1,0 8.7,3.3 9,8 v 31.4 0 0 c -14.5,5.8 -19,7.7 -27.2,11.4 -12.6,5.6 -24,11.7 -30.3,18.2 -7.9,8.1 -11.2,15.7 -10.4,29.2 1.3,21.7 19.6,29.6 34.2,29.6 24.1,0 31.4,-11.8 34.1,-13.5 0,0 1.3,-1.7 2.1,0 5.3,10.7 16,13.2 25.5,13.2 10.2,0 26.1,-4.9 31.9,-14.4 0.6,-0.9 0.9,-3 0.9,-3 v -13.3 c -0.1,-1.6 -0.6,-3.9 -3.2,-3.5 z m -57.5,-3.2 c 0,0 -0.1,4.2 -4.9,5.6 0,0 -7.4,1.7 -11.9,-1 -4.5,-2.7 -5.9,-17.2 0.3,-24.4 2.9,-3.3 4.7,-5.6 12,-9.4 0,0 4.5,-2.4 4.5,1.6 z"
   id="path1" />
				<path
   class="st0"
   d="m 372,198.4 c 0,10.2 0,98.6 0,109.3 0,10.7 -3.6,39.7 -22.7,54.4 -21,16.2 -48.4,25.2 -50.2,25.9 -3.8,1.5 -10.3,-8.6 -3.7,-14.9 2.8,-2.6 17.1,-16.6 20,-20.4 2.9,-3.8 7.8,-8.8 9.2,-19.6 4.3,-31.5 2.2,-82.8 2.2,-84.8 0,-2.1 -0.8,-6.4 -5,-7.8 -4.2,-1.4 -14.7,-2.4 -16.2,-3.3 -1.5,-0.9 -1.5,-11.4 -0.6,-12.9 0.9,-1.5 28.8,-30 33.5,-31 4.6,-1 27,-1 28.6,-1 3.7,0 4.9,2.3 4.9,6.1 z"
   id="path2" />
				<path
   class="st0"
   d="m 450.8,184.2 c -33.4,0 -60.5,23.1 -60.5,73.6 0,50.5 27.1,73.6 60.5,73.6 33.4,0 60.5,-23.1 60.5,-73.6 0,-50.5 -27.1,-73.6 -60.5,-73.6 z m 0,127.4 c -12.5,0 -12.1,-16.9 -12.1,-53.7 0,-36.8 -1,-53.7 12.1,-53.7 13.1,0 12.1,16.8 12.1,53.7 0,36.9 0.4,53.7 -12.1,53.7 z"
   id="path3" />
				<path
   class="st0"
   d="m 112.7,184.1 c -7.5,-0.2 -17.6,2.7 -23.5,9.9 -0.6,0.6 -1.5,1.1 -2.5,1.1 -1.7,0 -3.2,-1.3 -3.2,-2.9 v -52.5 c 0,-4.5 -4,-8.1 -9,-8.1 -5.2,0 -7.7,1.2 -7.7,1.2 l -38.6,14.7 c -3.7,1.7 -6.3,5.2 -6.3,9.3 -0.1,4.7 3.1,8.2 7.9,10.1 7.3,3.6 5.6,9.4 5.9,21.8 l 0.1,127.4 c 0,0.8 0.5,1.4 1.4,2.1 v 0 c 12.8,10.1 37.2,14.9 54.1,14.9 35.3,0 72.3,-27.9 72.3,-77.4 0,-40.2 -16.3,-70.7 -50.9,-71.6 z m -3.6,111.4 c -2.7,9.2 -7.7,18.8 -14,18.8 -12.2,0 -11.4,-18.2 -11.4,-33.9 V 235 c 0,-3.7 0,-8.8 1.5,-11.9 1.8,-3.8 5.3,-5.6 8.1,-5.6 13.5,0 19.5,28.5 19.5,48 0,10.3 -1.1,20.5 -3.7,30 z"
   id="path4" />
				<path
   class="st0"
   d="m 715.9,190.6 c -9.6,-7.8 -27.2,-8.9 -40,-3.3 -12.8,5.6 -27.3,25.9 -28.5,27.3 -1.4,1.6 -3.7,0.5 -3.7,-1.1 v -15.8 c 0,-2.6 -2.2,-4.8 -5,-4.8 -17.8,0.8 -46.6,1.4 -46.6,1.4 -3.1,0.4 -5.1,2.3 -5.1,5 v 8.2 c 0,1.6 0.8,3 2.1,3.8 0,0 2.2,1.6 3.7,2.5 7,3.6 6.8,16.3 7,28.7 l -0.9,46.9 c 0,4.2 -8,7.7 -14.7,6.7 -5.1,-0.8 -11.3,-3.9 -11.3,-8.8 v -90 c 0,-2.6 -2.2,-4.8 -5.1,-4.8 -17.7,0.8 -45,1.4 -45,1.4 -3.1,0.4 -5.1,2.3 -5.1,5 v 8.2 c 0,1.6 0.8,3 2.1,3.8 0,0 2.2,1.6 3.6,2.5 7,3.6 6.8,21 7,33.4 L 529,297 c 0,16.6 14.4,30.1 32.1,30.1 4.4,0 7.7,-0.8 11.6,-2.3 6.8,-2.5 20.1,-11.1 20.1,-11.1 3.2,-2 6.2,-0.2 6.2,2.5 V 327 c 0,1.7 1.4,3.2 3.2,3 12.2,-1.8 34.7,-4 46.4,-4.6 3.1,-0.2 6.5,0 6.5,-2 v -8.1 0 c 0,-3.9 -4.9,-3.4 -7.4,-4.4 -2.6,-1 -3.7,-2.4 -3.7,-8.4 l -0.2,-56.8 c 0.1,-10.4 4.3,-18 10.6,-24.3 6,-5.9 14.2,-12.2 19.6,-4 4,6 10,20.4 27.8,20.4 10.6,0 19,-8.8 22.1,-18 3,-9.2 1.6,-21.4 -8,-29.2 z"
   id="path5" />
			</g>
		</g>
		<circle
   class="st1"
   cx="375.39999"
   cy="77.900002"
   r="22.799999"
   id="circle6" />
		<ellipse
   class="st2"
   cx="328.89999"
   cy="121.2"
   rx="21.9"
   ry="22.799999"
   id="ellipse6" />
		<linearGradient
   id="SVGID_1_"
   gradientUnits="userSpaceOnUse"
   x1="258.0632"
   y1="104.1786"
   x2="287.26041"
   y2="119.5097">
			<stop
   offset="0.2658"
   style="stop-color:#C13F28"
   id="stop6" />
			<stop
   offset="0.9009"
   style="stop-color:#E24730"
   id="stop7" />
		</linearGradient>
		<ellipse
   class="st3"
   cx="276.5"
   cy="113.9"
   rx="20.200001"
   ry="20.9"
   id="ellipse7" />
		<path
   class="st4"
   d="m 330.5,126 0.2,6.1 c 0.3,7.1 -4.1,13.5 -10.8,15.9 l -5.6,1.9 4.4,14.7 5.3,0.1 c 8.3,0.2 15.9,4.7 20,12 l 1.5,2.6 11.8,-3.7 0.2,-3.3 c 0.7,-9.2 5.9,-17.4 13.9,-21.8 l 1.7,-0.9 -4.4,-12.1 -5.8,-0.1 c -6.8,-0.1 -13.1,-3.6 -16.8,-9.3 l -3.1,-4.9 z"
   id="path7" />
		<path
   class="st5"
   d="m 275.4,62.1 c 0,0 22,-4.4 29,12.1 l 16.5,-5.9 c 0,0 -5.9,-16.5 11.4,-29.8 l -4,-12.5 c 0,0 -22.8,5.1 -32,-14.3 l -14,6.2 c 0,0 9.2,22 -12.9,31.2 z"
   id="path8" />
	</g>
</g></g>
</svg>
