<?xml version="1.0" encoding="utf-8"?>
<!-- Generator: Adobe Illustrator 27.0.0, SVG Export Plug-In . SVG Version: 6.00 Build 0)  -->
<svg version="1.1" xmlns="http://www.w3.org/2000/svg" xmlns:xlink="http://www.w3.org/1999/xlink" x="0px" y="0px"
	 viewBox="0 0 747.3 400" style="enable-background:new 0 0 747.3 400;" xml:space="preserve">
<style type="text/css">
	.st0{fill:#050006;}
	.st1{fill:#FF0100;}
	.st2{fill:#85AB1C;}
	.st3{fill:url(#SVGID_1_);}
	.st4{fill:#197DC1;}
	.st5{fill:#39B549;}
</style>
<g id="Layer_1">
</g>
<g id="Layer_2">
	<g>
		<g>
			<g>
				<path class="st0" d="M297.7,295.7c-2.9,0.4-5.6,3-8.3,3c-0.5,0-2.1-0.3-2.3-1.4V219c0-10.1-1.5-15.7-9.5-22.8
					c-11-9.8-32.4-12.3-42.4-12.3c-15.8,0-38.8,3.9-50.8,17.6c-7.1,8.1-10.5,25.1-5.2,36.4c1.3,2.7,4.8,1,4.8,1l34.6-10
					c2.8-1.6,1.7-3.9,1.7-3.9c-0.6-3.4-1-10.3-1-10.3c0-5.9,3-12.3,11.8-12.3c6.1,0,8.7,3.3,9,8v31.4l0,0l0,0
					c-14.5,5.8-19,7.7-27.2,11.4c-12.6,5.6-24,11.7-30.3,18.2c-7.9,8.1-11.2,15.7-10.4,29.2c1.3,21.7,19.6,29.6,34.2,29.6
					c24.1,0,31.4-11.8,34.1-13.5c0,0,1.3-1.7,2.1,0c5.3,10.7,16,13.2,25.5,13.2c10.2,0,26.1-4.9,31.9-14.4c0.6-0.9,0.9-3,0.9-3
					v-13.3C300.8,297.6,300.3,295.3,297.7,295.7z M240.2,292.5c0,0-0.1,4.2-4.9,5.6c0,0-7.4,1.7-11.9-1c-4.5-2.7-5.9-17.2,0.3-24.4
					c2.9-3.3,4.7-5.6,12-9.4c0,0,4.5-2.4,4.5,1.6L240.2,292.5L240.2,292.5z"/>
				<path class="st0" d="M372,198.4c0,10.2,0,98.6,0,109.3c0,10.7-3.6,39.7-22.7,54.4c-21,16.2-48.4,25.2-50.2,25.9
					c-3.8,1.5-10.3-8.6-3.7-14.9c2.8-2.6,17.1-16.6,20-20.4c2.9-3.8,7.8-8.8,9.2-19.6c4.3-31.5,2.2-82.8,2.2-84.8
					c0-2.1-0.8-6.4-5-7.8c-4.2-1.4-14.7-2.4-16.2-3.3c-1.5-0.9-1.5-11.4-0.6-12.9c0.9-1.5,28.8-30,33.5-31c4.6-1,27-1,28.6-1
					C370.8,192.3,372,194.6,372,198.4z"/>
				<path class="st0" d="M450.8,184.2c-33.4,0-60.5,23.1-60.5,73.6s27.1,73.6,60.5,73.6c33.4,0,60.5-23.1,60.5-73.6
					S484.2,184.2,450.8,184.2z M450.8,311.6c-12.5,0-12.1-16.9-12.1-53.7s-1-53.7,12.1-53.7s12.1,16.8,12.1,53.7
					C462.9,294.8,463.3,311.6,450.8,311.6z"/>
				<path class="st0" d="M112.7,184.1c-7.5-0.2-17.6,2.7-23.5,9.9c-0.6,0.6-1.5,1.1-2.5,1.1c-1.7,0-3.2-1.3-3.2-2.9v-52.5
					c0-4.5-4-8.1-9-8.1c-5.2,0-7.7,1.2-7.7,1.2l-38.6,14.7c-3.7,1.7-6.3,5.2-6.3,9.3c-0.1,4.7,3.1,8.2,7.9,10.1
					c7.3,3.6,5.6,9.4,5.9,21.8l0.1,127.4c0,0.8,0.5,1.4,1.4,2.1l0,0c12.8,10.1,37.2,14.9,54.1,14.9c35.3,0,72.3-27.9,72.3-77.4
					C163.6,215.5,147.3,185,112.7,184.1z M109.1,295.5c-2.7,9.2-7.7,18.8-14,18.8c-12.2,0-11.4-18.2-11.4-33.9V235
					c0-3.7,0-8.8,1.5-11.9c1.8-3.8,5.3-5.6,8.1-5.6c13.5,0,19.5,28.5,19.5,48C112.8,275.8,111.7,286,109.1,295.5z"/>
				<path class="st0" d="M715.9,190.6c-9.6-7.8-27.2-8.9-40-3.3c-12.8,5.6-27.3,25.9-28.5,27.3c-1.4,1.6-3.7,0.5-3.7-1.1l0-15.8
					c0-2.6-2.2-4.8-5-4.8c-17.8,0.8-46.6,1.4-46.6,1.4c-3.1,0.4-5.1,2.3-5.1,5v8.2c0,1.6,0.8,3,2.1,3.8c0,0,2.2,1.6,3.7,2.5
					c7,3.6,6.8,16.3,7,28.7l-0.9,46.9c0,4.2-8,7.7-14.7,6.7c-5.1-0.8-11.3-3.9-11.3-8.8l0-90c0-2.6-2.2-4.8-5.1-4.8
					c-17.7,0.8-45,1.4-45,1.4c-3.1,0.4-5.1,2.3-5.1,5v8.2c0,1.6,0.8,3,2.1,3.8c0,0,2.2,1.6,3.6,2.5c7,3.6,6.8,21,7,33.4L529,297
					c0,16.6,14.4,30.1,32.1,30.1c4.4,0,7.7-0.8,11.6-2.3c6.8-2.5,20.1-11.1,20.1-11.1c3.2-2,6.2-0.2,6.2,2.5v10.8
					c0,1.7,1.4,3.2,3.2,3c12.2-1.8,34.7-4,46.4-4.6c3.1-0.2,6.5,0,6.5-2v-8.1l0,0c0-3.9-4.9-3.4-7.4-4.4c-2.6-1-3.7-2.4-3.7-8.4
					l-0.2-56.8c0.1-10.4,4.3-18,10.6-24.3c6-5.9,14.2-12.2,19.6-4c4,6,10,20.4,27.8,20.4c10.6,0,19-8.8,22.1-18
					C726.9,210.6,725.5,198.4,715.9,190.6z"/>
			</g>
		</g>
		<circle class="st1" cx="375.4" cy="77.9" r="22.8"/>
		<ellipse class="st2" cx="328.9" cy="121.2" rx="21.9" ry="22.8"/>
		<linearGradient id="SVGID_1_" gradientUnits="userSpaceOnUse" x1="258.0632" y1="104.1786" x2="287.2604" y2="119.5097">
			<stop  offset="0.2658" style="stop-color:#C13F28"/>
			<stop  offset="0.9009" style="stop-color:#E24730"/>
		</linearGradient>
		<ellipse class="st3" cx="276.5" cy="113.9" rx="20.2" ry="20.9"/>
		<path class="st4" d="M330.5,126l0.2,6.1c0.3,7.1-4.1,13.5-10.8,15.9l-5.6,1.9l4.4,14.7l5.3,0.1c8.3,0.2,15.9,4.7,20,12l1.5,2.6
			l11.8-3.7l0.2-3.3c0.7-9.2,5.9-17.4,13.9-21.8l1.7-0.9l-4.4-12.1l-5.8-0.1c-6.8-0.1-13.1-3.6-16.8-9.3l-3.1-4.9L330.5,126z"/>
		<path class="st5" d="M275.4,62.1c0,0,22-4.4,29,12.1l16.5-5.9c0,0-5.9-16.5,11.4-29.8l-4-12.5c0,0-22.8,5.1-32-14.3l-14,6.2
			c0,0,9.2,22-12.9,31.2L275.4,62.1z"/>
	</g>
</g>
</svg>
