<?xml version="1.0" encoding="UTF-8" standalone="no"?>
<svg
   xmlns:dc="http://purl.org/dc/elements/1.1/"
   xmlns:cc="http://creativecommons.org/ns#"
   xmlns:rdf="http://www.w3.org/1999/02/22-rdf-syntax-ns#"
   xmlns:svg="http://www.w3.org/2000/svg"
   xmlns="http://www.w3.org/2000/svg"
   xmlns:sodipodi="http://sodipodi.sourceforge.net/DTD/sodipodi-0.dtd"
   xmlns:inkscape="http://www.inkscape.org/namespaces/inkscape"
   version="1.1"
   id="Ebene_1"
   x="0px"
   y="0px"
   width="500"
   height="560"
   viewBox="-176.966 -215.01 500 559.99999"
   enable-background="new -176.966 -215.01 408.272 494.945"
   xml:space="preserve"
   sodipodi:docname="Coat_of_arms_of_Münchenstein.svg"
   inkscape:version="1.0.1 (3bc2e813f5, 2020-09-07)"><sodipodi:namedview
   pagecolor="#ffffff"
   bordercolor="#666666"
   borderopacity="1"
   objecttolerance="10"
   gridtolerance="10"
   guidetolerance="10"
   inkscape:pageopacity="0"
   inkscape:pageshadow="2"
   inkscape:window-width="1920"
   inkscape:window-height="1001"
   id="namedview11"
   showgrid="false"
   inkscape:zoom="0.99937758"
   inkscape:cx="180.42566"
   inkscape:cy="213.36086"
   inkscape:window-x="-9"
   inkscape:window-y="-9"
   inkscape:window-maximized="1"
   inkscape:current-layer="Ebene_1"
   showguides="false" /><metadata
   id="metadata4617"><rdf:RDF><cc:Work
       rdf:about=""><dc:format>image/svg+xml</dc:format><dc:type
         rdf:resource="http://purl.org/dc/dcmitype/StillImage" /><dc:title></dc:title></cc:Work></rdf:RDF></metadata><defs
   id="defs4615"><inkscape:path-effect
   effect="spiro"
   id="path-effect1777"
   is_visible="true"
   lpeversion="1" /><inkscape:path-effect
   effect="spiro"
   id="path-effect1772"
   is_visible="true"
   lpeversion="1" /><inkscape:path-effect
   effect="spiro"
   id="path-effect1767"
   is_visible="true"
   lpeversion="1" /><inkscape:path-effect
   effect="spiro"
   id="path-effect1763"
   is_visible="true"
   lpeversion="1" /><inkscape:path-effect
   effect="spiro"
   id="path-effect1759"
   is_visible="true"
   lpeversion="1" /><inkscape:path-effect
   effect="spiro"
   id="path-effect1755"
   is_visible="true"
   lpeversion="1" /><inkscape:path-effect
   effect="spiro"
   id="path-effect1751"
   is_visible="true"
   lpeversion="1" /><inkscape:path-effect
   effect="spiro"
   id="path-effect1747"
   is_visible="true"
   lpeversion="1" /><inkscape:path-effect
   effect="spiro"
   id="path-effect1743"
   is_visible="true"
   lpeversion="1" /><inkscape:path-effect
   effect="spiro"
   id="path-effect1739"
   is_visible="true"
   lpeversion="1" /><inkscape:path-effect
   effect="spiro"
   id="path-effect1732"
   is_visible="true"
   lpeversion="1" /><inkscape:path-effect
   effect="spiro"
   id="path-effect1728"
   is_visible="true"
   lpeversion="1" /><inkscape:path-effect
   effect="spiro"
   id="path-effect1724"
   is_visible="true"
   lpeversion="1" /><inkscape:path-effect
   effect="spiro"
   id="path-effect1720"
   is_visible="true"
   lpeversion="1" /><inkscape:path-effect
   effect="spiro"
   id="path-effect1716"
   is_visible="true"
   lpeversion="1" /><inkscape:path-effect
   effect="spiro"
   id="path-effect1712"
   is_visible="true"
   lpeversion="1" /><inkscape:path-effect
   effect="spiro"
   id="path-effect1708"
   is_visible="true"
   lpeversion="1" /><inkscape:path-effect
   effect="spiro"
   id="path-effect1665"
   is_visible="true"
   lpeversion="1" /><inkscape:path-effect
   effect="spiro"
   id="path-effect1661"
   is_visible="true"
   lpeversion="1" /><inkscape:path-effect
   effect="spiro"
   id="path-effect1657"
   is_visible="true"
   lpeversion="1" /><inkscape:path-effect
   effect="spiro"
   id="path-effect1653"
   is_visible="true"
   lpeversion="1" /><inkscape:path-effect
   effect="spiro"
   id="path-effect1649"
   is_visible="true"
   lpeversion="1" /><inkscape:path-effect
   effect="spiro"
   id="path-effect1645"
   is_visible="true"
   lpeversion="1" /><inkscape:path-effect
   effect="spiro"
   id="path-effect1641"
   is_visible="true"
   lpeversion="1" /><inkscape:path-effect
   effect="spiro"
   id="path-effect1637"
   is_visible="true"
   lpeversion="1" /><inkscape:path-effect
   effect="spiro"
   id="path-effect1606"
   is_visible="true"
   lpeversion="1" /><inkscape:path-effect
   effect="spiro"
   id="path-effect1602"
   is_visible="true"
   lpeversion="1" /><inkscape:path-effect
   effect="spiro"
   id="path-effect1598"
   is_visible="true"
   lpeversion="1" /><inkscape:path-effect
   effect="spiro"
   id="path-effect1594"
   is_visible="true"
   lpeversion="1" /><inkscape:path-effect
   effect="spiro"
   id="path-effect1590"
   is_visible="true"
   lpeversion="1" /><inkscape:path-effect
   effect="spiro"
   id="path-effect1586"
   is_visible="true"
   lpeversion="1" /><inkscape:path-effect
   effect="spiro"
   id="path-effect1582"
   is_visible="true"
   lpeversion="1" /><inkscape:path-effect
   effect="spiro"
   id="path-effect1578"
   is_visible="true"
   lpeversion="1" /><inkscape:path-effect
   effect="spiro"
   id="path-effect1574"
   is_visible="true"
   lpeversion="1" /><inkscape:path-effect
   effect="spiro"
   id="path-effect1570"
   is_visible="true"
   lpeversion="1" /><inkscape:path-effect
   effect="spiro"
   id="path-effect1566"
   is_visible="true"
   lpeversion="1" /><inkscape:path-effect
   effect="spiro"
   id="path-effect1562"
   is_visible="true"
   lpeversion="1" /><inkscape:path-effect
   effect="spiro"
   id="path-effect1558"
   is_visible="true"
   lpeversion="1" /><inkscape:path-effect
   effect="spiro"
   id="path-effect1554"
   is_visible="true"
   lpeversion="1" /><inkscape:path-effect
   effect="spiro"
   id="path-effect1550"
   is_visible="true"
   lpeversion="1" /><inkscape:path-effect
   effect="spiro"
   id="path-effect1546"
   is_visible="true"
   lpeversion="1" /><inkscape:path-effect
   effect="spiro"
   id="path-effect1542"
   is_visible="true"
   lpeversion="1" /><inkscape:path-effect
   effect="spiro"
   id="path-effect1514"
   is_visible="true"
   lpeversion="1" /><inkscape:path-effect
   effect="spiro"
   id="path-effect1510"
   is_visible="true"
   lpeversion="1" /><inkscape:path-effect
   effect="spiro"
   id="path-effect1506"
   is_visible="true"
   lpeversion="1" /><inkscape:path-effect
   effect="spiro"
   id="path-effect1502"
   is_visible="true"
   lpeversion="1" /><inkscape:path-effect
   effect="spiro"
   id="path-effect1477"
   is_visible="true"
   lpeversion="1" /><inkscape:path-effect
   effect="spiro"
   id="path-effect1473"
   is_visible="true"
   lpeversion="1" /><inkscape:path-effect
   effect="spiro"
   id="path-effect1469"
   is_visible="true"
   lpeversion="1" /><inkscape:path-effect
   effect="spiro"
   id="path-effect1465"
   is_visible="true"
   lpeversion="1" /><inkscape:path-effect
   effect="spiro"
   id="path-effect1461"
   is_visible="true"
   lpeversion="1" /><inkscape:path-effect
   effect="spiro"
   id="path-effect1457"
   is_visible="true"
   lpeversion="1" /><inkscape:path-effect
   effect="spiro"
   id="path-effect1453"
   is_visible="true"
   lpeversion="1" /><inkscape:path-effect
   effect="spiro"
   id="path-effect1434"
   is_visible="true"
   lpeversion="1" /><inkscape:path-effect
   effect="spiro"
   id="path-effect1430"
   is_visible="true"
   lpeversion="1" /><inkscape:path-effect
   effect="spiro"
   id="path-effect1426"
   is_visible="true"
   lpeversion="1" />
	
	
	
	
	
	
	
	
	
	
	
</defs>

<path
   id="Schild"
   d="m -172.96598,-211.00998 v 305.3744 c 0.0387,136.21906 110.165332,246.62556 245.99998,246.62556 135.83465,0 245.96125,-110.4065 245.99998,-246.62556 v -305.3744 z"
   style="fill:#ffffff;fill-opacity:1;stroke:#000000;stroke-width:8.00004;stroke-miterlimit:4;stroke-dasharray:none" /><path
   id="Kutte"
   style="fill:#000000;fill-opacity:1;stroke:none;stroke-width:1px;stroke-linecap:butt;stroke-linejoin:miter;stroke-opacity:1"
   d="m 100.57306,-185.31859 c -1.01692,0.0106 -2.03318,0.0599 -3.04492,0.14062 -5.14056,0.4099 -10.2045,1.61886 -15.04102,3.4082 -3.60454,1.33356 -7.09569,2.99103 -10.35156,5.03321 -1.56341,0.98062 -3.07252,2.04983 -4.68945,2.93945 -0.63612,0.34999 -1.29756,0.67557 -2.00781,0.82617 -0.71026,0.15059 -1.48027,0.11253 -2.11914,-0.23242 -0.35981,-0.19427 -0.66435,-0.47633 -0.96094,-0.75781 -0.29659,-0.28149 -0.59405,-0.56744 -0.94727,-0.77344 -0.65082,-0.37955 -1.47793,-0.44996 -2.17578,-0.16601 -0.46388,0.18875 -0.8685,0.53145 -1.10547,0.97265 -0.24862,0.46296 -0.30526,1.0136 -0.22656,1.5332 0.0787,0.51959 0.28446,1.01275 0.53516,1.47461 0.12005,0.22116 0.25202,0.4379 0.32812,0.67774 0.0381,0.11992 0.0627,0.24527 0.0625,0.37109 -2e-4,0.12581 -0.0251,0.2521 -0.0801,0.36524 -0.0567,0.11659 -0.14573,0.21782 -0.25,0.29492 -0.10428,0.077 -0.22461,0.13161 -0.34961,0.16601 -0.24998,0.0689 -0.51414,0.0573 -0.77148,0.0254 -0.25819,-0.0321 -0.51302,-0.0854 -0.77148,-0.11523 -0.25846,-0.0298 -0.52279,-0.0349 -0.77539,0.0273 -0.30219,0.0744 -0.57881,0.24502 -0.79102,0.47266 -0.21221,0.22764 -0.36107,0.5115 -0.44727,0.81055 -0.088,0.30536 -0.11204,0.62978 -0.0605,0.94336 0.0515,0.31358 0.17809,0.6152 0.36914,0.86914 0.25373,0.33725 0.61286,0.5798 0.98047,0.78711 0.36761,0.20731 0.75145,0.38558 1.09765,0.62695 0.75363,0.52542 1.29548,1.35182 1.45899,2.25586 0.15895,0.87885 -0.046,1.70114 -0.39649,2.60937 -0.35049,0.90823 -4.96964,10.19151 -7.2539,13.92969 -1.4797,2.35845 -4.46644,5.09681 -8.75586,6.81055 -1.0133,0.41889 -2.10745,0.63052 -3.09571,1.10547 -0.53282,0.25607 -1.03087,0.58825 -1.44336,1.01172 -0.41249,0.42347 -0.73759,0.93951 -0.90039,1.50781 -0.20358,0.71076 -0.14767,1.48152 0.0781,2.18555 0.22579,0.70403 0.61539,1.34643 1.07226,1.92773 0.63899,0.81303 1.40926,1.5148 2.21094,2.16797 1.55228,1.26472 3.24355,2.37223 4.64453,3.80273 0.35077,0.35816 0.68345,0.73779 0.94727,1.16407 0.26382,0.42629 0.45732,0.90203 0.51172,1.40039 0.0824,0.75525 -0.15541,1.50416 -0.26563,2.25586 -0.043,0.29342 -0.0664,0.59377 0,0.88281 0.059,0.25693 0.18729,0.49437 0.34571,0.70508 0.15841,0.21071 0.34719,0.39735 0.53906,0.57812 0.67595,0.63683 1.40779,1.22198 1.99023,1.94531 0.14394,0.17876 0.27806,0.36712 0.37696,0.57422 0.0989,0.2071 0.16034,0.4347 0.15234,0.66406 -0.0118,0.33402 -0.16861,0.64718 -0.36719,0.91602 -0.19858,0.26883 -0.43892,0.50522 -0.64844,0.76562 -0.32596,0.40512 -0.57845,0.87324 -0.71484,1.375 -0.1364,0.50178 -0.15508,1.03656 -0.0371,1.54297 0.0978,0.41971 0.28697,0.8113 0.48633,1.19336 0.59892,1.14777 1.30678,2.25438 1.67969,3.49414 0.23672,0.78698 0.33123,1.63414 0.13281,2.43164 -0.14644,0.58859 -0.44606,1.13178 -0.57422,1.72461 -0.11334,0.52415 -0.0886,1.0739 0.043,1.59375 0.13163,0.51986 0.36776,1.01203 0.66406,1.45899 0.52643,0.7941 1.23959,1.44647 1.99024,2.0332 0.75808,0.59254 1.57216,1.13058 2.47656,1.45899 1.15566,0.41965 2.40349,0.47918 3.625,0.61914 0.99879,0.11444 2.00573,0.28877 2.91992,0.70703 1.19057,0.54471 2.18994,1.51123 2.74023,2.69922 0.42278,0.91265 0.57771,1.93175 0.56641,2.9375 -0.0113,1.00575 -0.18283,2.00375 -0.38867,2.98828 -0.19162,0.91648 -0.41889,1.84018 -0.88477,2.65234 -0.50365,0.878 -1.26206,1.5822 -1.8125,2.43164 -0.22891,0.35326 -0.42165,0.73473 -0.5332,1.14063 -0.1115,0.40589 -0.13892,0.83864 -0.041,1.24804 0.0838,0.3504 0.25546,0.67499 0.4746,0.96094 0.21915,0.28596 0.48333,0.53499 0.76172,0.76367 0.38524,0.31647 0.8081,0.60088 1.28321,0.75196 0.67946,0.21605 1.41233,0.1448 2.12304,0.08789 4.11595,-0.32961 8.25381,-0.11815 12.38282,-0.08789 3.96767,0.02907 7.94441,-0.10827 11.89453,0.26562 1.79861,0.17024 3.58834,0.4461 5.35156,0.83984 2.00396,0.44751 3.98919,1.05214 5.79297,2.03321 0.33161,0.18036 0.65684,0.37566 0.94531,0.61914 0.28846,0.24348 0.5389,0.5386 0.68945,0.88476 0.23292,0.53552 0.20818,1.16651 -0.0176,1.70508 -0.22575,0.53858 -0.63961,0.98699 -1.13086,1.30274 -0.50903,0.32717 -1.10237,0.5184 -1.70508,0.57226 -0.6027,0.05386 -1.21472,-0.02825 -1.78906,-0.21875 -1.09064,-0.36174 -2.01504,-1.09422 -3.05079,-1.59179 -0.6965,-0.33461 -1.44484,-0.56311 -2.21093,-0.66407 -1.12735,-0.14857 -2.27112,-0.02202 -3.40625,0.04492 -4.2015,0.24786 -8.40084,-0.31356 -12.60157,-0.57421 -5.47443,-0.33969 -10.96709,-0.16758 -16.45117,-0.26563 -1.20993,-0.02163 -2.42549,-0.05672 -3.62695,0.08789 -0.9741,0.11725 -1.92916,0.35138 -2.87305,0.61914 -1.66594,0.47259 -3.30483,1.05111 -4.99804,1.41407 -2.62181,0.56201 -5.32343,0.59509 -8.00391,0.66406 -1.40335,0.03611 -2.80924,0.08338 -4.20117,0.26562 -3.37934,0.44245 -6.59645,1.6682 -9.81641,2.78516 -4.38206,1.52007 -8.86843,2.86111 -13.48828,3.27344 -1.50525,0.13434 -3.03831,0.16671 -4.50977,-0.17774 -1.44472,-0.33818 -2.79195,-1.03106 -4.24609,-1.32617 -0.70186,-0.14244 -1.44534,-0.18662 -2.12305,0.04492 -0.72719,0.24845 -1.32485,0.80269 -1.72461,1.45899 -0.68523,1.12496 -0.81095,2.49069 -0.92773,3.80273 -0.26098,2.93202 -0.55477,5.90992 0,8.80078 0.4591,2.39234 1.51305,4.68577 3.13867,6.5 0.89958,1.00397 1.96778,1.85694 3.14063,2.52149 0.67931,0.3849 1.43186,0.71373 2.21093,0.66211 0.43961,-0.02913 0.86431,-0.18004 1.24805,-0.39649 0.38375,-0.21645 0.72833,-0.49665 1.05078,-0.79687 0.60127,-0.55981 1.15492,-1.20787 1.90235,-1.54883 0.25002,-0.11405 0.51856,-0.19049 0.79296,-0.20508 0.27442,-0.01459 0.55485,0.03564 0.79883,0.16211 0.21412,0.11099 0.39586,0.2781 0.54102,0.4707 0.14515,0.19261 0.25525,0.41041 0.34375,0.63477 0.32022,0.81203 0.36144,1.73553 0.0879,2.56445 -0.35366,1.07168 -1.18891,1.91449 -2.07813,2.60938 -1.61661,1.26331 -3.56645,2.19352 -5.61718,2.25586 -1.75219,0.05327 -3.4901,-0.53636 -4.95703,-1.4961 -1.46693,-0.95974 -2.67585,-2.27609 -3.66602,-3.72265 -1.3564,-1.98159 -2.32034,-4.21573 -2.98437,-6.52344 -0.44599,-1.54987 -0.75975,-3.14315 -0.83985,-4.75391 -0.0535,-1.07508 -0.003,-2.15398 -0.0664,-3.22851 -0.0635,-1.07305 -0.24103,-2.13436 -0.33593,-3.20508 -0.0949,-1.07073 -0.10616,-2.16513 0.1582,-3.20703 0.27585,-1.0872 0.83897,-2.07337 1.30469,-3.09375 0.49889,-1.09305 0.89067,-2.23632 1.45898,-3.29492 0.75261,-1.40192 1.83224,-2.654 3.20703,-3.45508 0.40183,-0.23415 0.84821,-0.4351 1.3125,-0.40821 0.29145,0.01688 0.57213,0.12362 0.82032,0.27735 0.24819,0.15372 0.46503,0.35478 0.66406,0.56836 0.3046,0.32686 0.57273,0.68805 0.89258,1 0.92809,0.90517 2.27033,1.32705 3.56445,1.25 0.61312,-0.03651 1.21352,-0.1766 1.8125,-0.3125 3.70831,-0.84136 7.44967,-1.53207 11.19531,-2.1875 2.97228,-0.52011 5.9645,-1.02192 8.81836,-2.00196 1.43503,-0.4928 2.83391,-1.10753 4.31445,-1.43945 1.00534,-0.22538 2.03577,-0.31758 3.06446,-0.375 2.082,-0.11618 4.16894,-0.09113 6.2539,-0.125 3.07992,-0.05003 6.16871,-0.22948 9.19336,-0.8125 0.6757,-0.13024 1.34974,-0.28059 2.00196,-0.5 0.61555,-0.20708 1.22309,-0.48351 1.6875,-0.9375 0.576,-0.56308 0.8783,-1.34388 1.14062,-2.10547 0.72947,-2.11783 1.2821,-4.29223 1.85742,-6.45703 0.0711,-0.26754 0.14244,-0.53769 0.14844,-0.81445 0.006,-0.27676 -0.0588,-0.56495 -0.23633,-0.77735 -0.126,-0.15074 -0.30147,-0.2538 -0.48633,-0.32031 -0.18484,-0.06651 -0.38109,-0.09785 -0.57617,-0.12109 -1.08597,-0.12937 -2.18416,-0.02957 -3.27148,0.08789 -3.69383,0.39904 -7.36514,0.99597 -11.05664,1.41601 -4.20897,0.47893 -8.44112,0.72877 -12.64649,1.23829 -4.35039,0.52709 -8.66307,1.33062 -13.00195,1.94531 -1.47024,0.20829 -2.98965,0.39209 -4.42187,0 -1.085,-0.29704 -2.05183,-0.90784 -3.00586,-1.50391 -10.01459,-6.25697 -20.4508,-11.8097 -30.69141,-17.68945 -12.02321,-6.90325 -23.79393,-14.26608 -36.13477,-20.58399 -1.78283,-0.91272 -3.58127,-1.80617 -5.4707,-2.4707 -0.63521,-0.22341 -1.29905,-0.4228 -1.9707,-0.375 -0.38737,0.0276 -0.76445,0.13697 -1.125,0.28125 -0.29244,0.11702 -0.57534,0.25834 -0.8457,0.41992 -1.35762,-0.55297 -2.66363,-1.23606 -3.89258,-2.03515 -1.66024,-1.07953 -3.21497,-2.4139 -4.15625,-4.15625 -0.51859,-0.95993 -0.8372,-2.01967 -1.01758,-3.09571 -0.2201,-1.31223 -0.2384,-2.65005 -0.2207,-3.98047 0.0195,-1.47046 0.0792,-2.97144 -0.35352,-4.37695 -0.3373,-1.0958 -0.96021,-2.08214 -1.63672,-3.00781 -2.21232,-3.02711 -5.04634,-5.53498 -7.82812,-8.04883 -1.59431,-1.44075 -3.1782,-2.891 -4.73047,-4.37695 -1.12989,-1.08162 -2.24449,-2.18327 -3.27344,-3.36133 -1.2182,-1.39473 -2.3154,-2.89519 -3.58203,-4.24609 -1.13386,-1.2093 -2.40258,-2.29614 -3.80274,-3.1836 -1.44474,-0.91572 -3.02876,-1.6156 -4.6875,-2.0332 -1.07195,-0.26987 -2.21649,-0.41984 -3.27148,-0.0898 -0.82246,0.25727 -1.53312,0.78834 -2.16797,1.37109 -0.70931,0.6511 -1.34694,1.3801 -1.90039,2.16797 -1.51356,-0.69608 -2.96586,-1.52597 -4.33398,-2.47656 -1.86095,-1.29302 -3.52757,-2.46008 -5.27539,-3.90235 -0.97134,-0.80153 -1.99055,-1.92676 -2.99414,-2.6875 -1.87207,-1.45449 -3.74514,-1.04715 -5.61719,-0.66211 -4.04429,1.37069 -7.97999,3.0577 -11.76172,5.04102 -4.09218,2.14613 -8.07897,4.70525 -10.9668,8.3125 -2.09758,2.62013 -3.5484,5.71848 -4.51172,8.93359 -1.07455,3.58637 -1.55977,7.32265 -1.85742,11.05469 -0.36593,4.58813 -0.45488,9.19806 -0.26562,13.79687 7.57318,8.41952 15.39004,16.62047 23.4375,24.58789 3.89693,3.85817 7.84806,7.6627 11.85156,11.41016 l 19.54687,0.70703 c 2.92083,1.57809 5.65741,3.49721 8.13672,5.70508 1.56116,1.39025 3.05953,2.95432 3.80274,4.9082 0.59043,1.55211 0.66506,3.24761 0.66406,4.90821 -0.003,4.73181 -0.56199,9.45547 -1.50781,14.09179 -1.31013,6.42211 -3.35724,12.66706 -5.00196,19.01172 -2.24314,8.65312 -3.73338,17.47925 -5.3789,26.26563 -1.9409,10.36356 -4.10372,20.69417 -5.50391,31.14453 -0.45678,3.40919 -0.83146,6.82875 -1.125,10.25586 0.21449,1.19488 0.66349,2.34836 1.31445,3.37304 0.51734,0.81436 1.16209,1.54729 1.90235,2.16602 24.73284,-2.13872 49.35015,-5.61704 73.70703,-10.41602 C -14.55519,16.24546 5.01273,11.48993 24.4813,6.37868 39.32073,2.48276 54.10599,-1.62129 68.83091,-5.92991 c 0.0127,0.14704 0.0127,0.29436 0,0.4414 -0.058,0.67351 -0.38165,1.30569 -0.82227,1.81836 -0.44062,0.51268 -0.99301,0.91619 -1.56445,1.27735 -1.51845,0.95969 -3.194,1.64226 -4.86524,2.30078 -2.52658,0.99555 -5.0681,1.95026 -7.60547,2.91797 -4.77586,1.82142 -9.54094,3.68872 -14.41797,5.21875 -3.18788,1.0001 -6.41749,1.85515 -9.63867,2.74219 -2.24949,0.61945 -4.59084,1.30767 -6.27929,2.91796 -1.20855,1.15261 -1.97611,2.67926 -2.83204,4.11328 -0.41633,0.69754 -0.85947,1.38056 -1.19336,2.1211 -0.29386,0.65171 -0.50175,1.37878 -0.35351,2.07812 0.0948,0.44713 0.33111,0.85589 0.63281,1.19922 0.3017,0.34333 0.66687,0.6269 1.04688,0.88086 0.71474,0.47766 1.48718,0.86228 2.21093,1.32617 0.90855,0.58235 1.73934,1.28763 2.45899,2.0918 3.96777,-0.14658 7.91759,-0.73398 11.75586,-1.75 3.45551,-0.9147 6.81314,-2.17225 10.25781,-3.12695 5.41921,-1.50196 11.02425,-2.24508 16.63477,-2.62696 10.45733,-0.71177 20.96653,-0.18296 31.39453,0.875 5.79402,0.58783 11.57046,1.33925 17.32226,2.25196 1.30816,0.76617 2.60248,1.55901 3.87891,2.37695 1.13442,0.72693 2.27558,1.48241 3.56445,1.875 0.87495,0.26651 1.84501,0.35137 2.68946,0 0.44609,-0.18562 0.83982,-0.48572 1.16211,-0.8457 0.32227,-0.35998 0.57379,-0.7777 0.77539,-1.2168 0.4885,-1.06395 0.67648,-2.23613 0.93945,-3.37695 0.32025,-1.3893 0.75936,-2.75236 1.3125,-4.06641 1.99715,-2.29666 3.99856,-4.58938 6.0039,-6.87891 0.59843,-0.68322 1.2106,-1.39105 1.5,-2.25195 0.35917,-1.06846 0.16763,-2.2689 -0.34374,-3.27344 -0.64946,-1.27578 -1.76248,-2.25057 -2.91797,-3.0957 -0.91592,-0.6699 -1.88547,-1.28844 -2.6543,-2.12305 -1.27458,-1.38362 -1.89596,-3.26316 -2.12109,-5.13086 -0.24842,-2.0609 -0.054,-4.154 0.35351,-6.18945 0.43264,-2.16131 1.10096,-4.26817 1.76758,-6.36914 3.00306,-9.46473 5.97308,-18.9404 9.02148,-28.39062 0.41535,-1.28762 0.83321,-2.57539 1.15039,-3.89063 0.35667,-1.479 0.58213,-3.04363 0.17579,-4.50976 -0.32867,-1.18588 -1.06705,-2.24568 -2.03321,-3.00782 -1.28861,-1.01649 -2.90801,-1.48901 -4.42187,-2.12304 -2.03193,-0.85102 -3.95261,-2.04936 -5.39453,-3.71485 -0.42971,-0.49634 -0.81749,-1.0353 -1.09375,-1.63086 -0.27627,-0.59555 -0.43876,-1.25036 -0.41016,-1.90625 0.0323,-0.74091 0.31382,-1.47076 0.79492,-2.03515 0.37564,-0.44068 0.87005,-0.77973 1.41602,-0.97266 5.64322,3.96803 11.21747,8.03469 16.71875,12.19727 1.96332,1.48556 3.91804,2.98626 5.75195,4.6289 5.49665,4.92339 9.78037,11.02064 14.25977,16.88477 4.77923,6.25665 9.83316,12.30299 14.50976,18.63672 6.06748,8.21746 11.48271,16.89455 16.75977,25.64062 8.6541,14.3431 16.95443,28.8999 24.89062,43.65235 0.29743,6.41576 0.4224,12.83924 0.375,19.26171 -0.0532,7.21882 -0.32389,14.43622 -0.8125,21.63868 -0.87455,1.06416 -1.7504,2.12729 -2.62695,3.18945 -0.87654,1.06217 -1.79206,2.16894 -2.68945,3.25195 -0.89739,1.08301 -1.082,1.33588 -1.625,2.00196 -0.54301,0.66609 0.0427,1.12565 0.0625,1.6875 0.0198,0.56185 0.79242,2.50412 1.1875,3.7539 0.39508,1.24978 0.91738,0.91738 1.375,1.375 3.98603,-2.57882 7.8302,-5.37854 11.50781,-8.38086 1.44156,-1.17685 2.86082,-2.38813 4.12695,-3.75195 1.10484,-1.19009 2.09055,-2.49362 3.28321,-3.5957 0.52886,-0.48872 1.09695,-0.9345 1.68945,-1.34375 1.24631,-0.86086 2.60587,-1.5574 4.0332,-2.06446 1.25704,-2.79707 2.42499,-5.63464 3.50195,-8.50586 3.42508,-9.13136 5.91871,-18.5809 8.38086,-28.01757 4.105,-15.73318 8.14992,-31.53138 10.25586,-47.6543 0.87208,-6.67657 1.41076,-13.40352 1.37696,-20.13672 -0.068,-13.52909 -2.44014,-26.94416 -5.37891,-40.15039 -2.81264,-12.63945 -6.15154,-25.16177 -10.00586,-37.52344 2.98907,-5.61627 6.033,-11.20276 9.13086,-16.75976 1.62741,-2.91928 3.27766,-5.84956 4.37695,-9.00586 0.82812,-2.37773 1.3355,-4.86855 1.50196,-7.38086 -12.13619,-4.08234 -24.97062,-6.08002 -37.77344,-5.87891 -7.53323,0.11833 -15.03378,0.99061 -22.51563,1.87695 -9.49976,1.12539 -19.00688,2.27742 -28.39257,4.12696 -6.24154,1.22995 -12.42974,2.77011 -18.44922,4.82812 -4.66356,1.59443 -9.22064,3.49855 -13.92969,4.95313 -0.73268,0.22632 -1.4924,0.44381 -2.25391,0.35351 -0.83486,-0.099 -1.58219,-0.5576 -2.25586,-1.06054 -1.54639,-1.15449 -2.89491,-2.63825 -3.62695,-4.42383 -0.22414,-0.54663 -0.39079,-1.14724 -0.26562,-1.72461 0.0797,-0.36788 0.27367,-0.70069 0.50195,-1 0.22827,-0.29931 0.49238,-0.57074 0.73633,-0.85742 1.65574,-1.94576 2.31188,-4.61617 2.12304,-7.16407 -0.17818,-2.40414 -1.07234,-4.75038 -2.54101,-6.6621 0.013,-3.15092 0.13793,-6.30135 0.375,-9.44336 0.19796,-2.62377 0.4739,-5.24954 0.375,-7.87891 -0.088,-2.33781 -0.47717,-4.67147 -1.25196,-6.87891 -1.07632,-3.06654 -2.88402,-5.84591 -5.06445,-8.25586 -2.89439,-3.19908 -6.4242,-5.7593 -10.06836,-8.06836 -3.18438,-2.01773 -6.51545,-3.87822 -10.13281,-4.93945 -2.92171,-0.85715 -5.97268,-1.17244 -9.02344,-1.14062 z m 122.15039,63.70507 c 0.24316,0.52503 0.2978,1.13532 0.15235,1.69532 -0.14545,0.56001 -0.49111,0.81588 -0.95899,1.15625 -1.90304,1.14635 -4.97413,0.94748 -8.0039,1.375 -6.5653,0.80646 -13.06603,2.08747 -19.51368,3.56445 -8.01399,1.83579 -15.96071,3.97644 -23.76367,6.56641 -6.80786,2.25967 -13.50547,4.8623 -20.38867,6.88086 -3.34224,0.98014 -6.72841,1.8212 -10.00586,3 -4.52924,1.62902 -8.81001,3.88566 -13.32031,5.5664 -0.86729,0.32319 -1.7639,0.6282 -2.68945,0.625 -0.53487,-0.0019 -1.07001,-0.10853 -1.56446,-0.3125 l -0.39258,-3.12109 c 3.51899,-1.80212 7.11479,-3.45172 10.77539,-4.94531 7.55599,-3.08298 15.36745,-5.48991 23.16407,-7.90039 9.91339,-3.06496 19.82735,-6.14599 29.89258,-8.66797 9.07385,-2.27357 18.28091,-4.0917 27.5957,-4.95118 3.00009,-0.27682 6.00963,-0.45445 9.02148,-0.53125 z m -287.92773,11.01172 c 5.24845,2.87575 10.48001,5.77896 15.69726,8.71094 3.98163,2.23759 7.95563,4.49051 11.94141,6.7207 3.88078,2.17145 7.77343,4.32104 11.67383,6.45704 3.41255,1.86881 6.8412,3.73397 9.99414,6.01367 2.03098,1.46847 3.93963,3.10471 6.01367,4.51172 1.20033,0.81429 2.46688,1.56043 3.4707,2.60742 0.54641,0.5699 1.01575,1.23949 1.22071,2.00195 0.28224,1.04998 0.0411,2.17259 -0.34375,3.18945 -0.55478,1.46587 -1.39984,2.80489 -2.00196,4.25196 -0.6208,1.49197 -0.97557,3.07969 -1.3125,4.66015 -0.51647,2.42269 -0.99779,4.85578 -1.2832,7.31641 -0.20475,1.76524 -0.30895,3.53994 -0.43555,5.3125 -0.0746,1.04406 -0.16489,2.12036 -0.64062,3.05273 -0.3359,0.65833 -0.85595,1.21806 -1.48047,1.61328 -0.56031,0.3546 -1.2183,0.57917 -1.88086,0.55274 -0.35361,-0.01411 -0.70434,-0.09885 -1.01953,-0.25977 -0.31519,-0.16092 -0.59342,-0.39913 -0.79297,-0.6914 -0.20304,-0.29739 -0.32145,-0.64588 -0.38672,-1 -0.0653,-0.35412 -0.0797,-0.71419 -0.0859,-1.07422 -0.0186,-1.06615 0.0241,-2.13574 0.1875,-3.18945 0.23568,-1.51982 0.71869,-2.99187 1,-4.50391 0.4744,-2.55011 0.3675,-5.16754 0.56445,-7.75391 0.061,-0.8011 0.1521,-1.60507 0.375,-2.37695 0.26225,-0.90815 0.70015,-1.75391 1.0625,-2.62695 0.61,-1.46977 1.00665,-3.03661 1.0625,-4.62696 0.0164,-0.46663 5.9e-4,-0.94959 -0.1875,-1.37695 -0.23473,-0.53333 -0.70814,-0.91871 -1.1875,-1.25 -0.98365,-0.67979 -2.05699,-1.21828 -3.12695,-1.75195 -1.5028,-0.74954 -3.00864,-1.49585 -4.43946,-2.375 -3.04605,-1.87162 -5.7002,-4.30911 -8.56836,-6.44336 -2.52949,-1.88224 -5.22592,-3.52798 -7.94336,-5.12696 -4.40664,-2.59291 -8.88988,-5.07091 -13.57031,-7.1289 -2.93998,-1.29272 -5.95689,-2.42062 -8.81836,-3.87891 -3.75412,-1.91321 -7.21922,-4.39096 -10.24219,-7.32617 z M 84.68439,25.12672 c -1.80675,0.01334 -3.61328,0.06098 -5.41797,0.13867 -8.16871,0.35165 -16.29949,1.3231 -24.39062,2.5 -8.71246,1.26728 -17.39094,2.772 -26.02149,4.51172 -13.36519,39.37406 -26.33671,78.88287 -38.91406,118.51562 -4.85082,15.28552 -9.64606,30.59717 -15.21289,45.63672 -4.75315,12.84128 -10.06659,25.47494 -15.91992,37.85352 3.41716,2.65732 6.92558,5.19852 10.51562,7.61719 3.95596,2.6652 8.0216,5.18655 12.32032,7.2539 0.49968,0.24031 1.00514,0.47673 1.45507,0.80078 0.44993,0.32405 0.84487,0.74655 1.04493,1.26368 0.15278,0.39507 0.18479,0.83064 0.125,1.25 -0.0753,0.52763 -0.29179,1.03018 -0.5918,1.4707 -0.30002,0.44052 -0.68099,0.82147 -1.0957,1.15625 -0.72263,0.58332 -1.55469,1.03031 -2.43946,1.3125 -1.41474,-0.42941 -2.78053,-1.01691 -4.06445,-1.75 -1.1827,-0.6753 -2.29529,-1.47356 -3.31445,-2.37695 -2.26577,0.66728 -4.56168,1.22986 -6.87891,1.6875 -3.50098,0.69142 -7.06507,1.14275 -10.63281,1.06445 -1.36225,-0.0299 -2.75268,-0.14353 -4.00196,-0.6875 -1.26398,-0.55037 -2.30133,-1.5045 -3.31445,-2.43945 -1.51797,-1.40085 -3.04029,-2.79944 -4.56641,-4.19141 -1.16382,-1.06152 -2.33975,-2.12535 -3.68945,-2.9375 -1.2501,-0.75222 -2.62391,-1.27281 -4.00195,-1.75195 -2.26661,-0.7881 -4.56702,-1.47847 -6.81641,-2.31446 -1.8998,-0.70607 -3.76746,-1.5192 -5.5039,-2.56445 -2.51094,-1.51146 -4.70665,-3.48084 -6.94141,-5.37695 -3.32428,-2.82052 -6.7654,-5.49981 -10.19336,-8.19336 -3.2443,-2.54923 -6.48021,-5.11281 -9.82031,-7.53516 -1.73715,-1.25984 -3.50086,-2.48032 -5.25196,-3.7207 -1.09571,-0.77614 -2.22407,-1.57839 -3.5332,-1.87696 -0.84192,-0.192 -1.73103,-0.16356 -2.56445,0.0625 -1.31879,0.35773 -2.4717,1.19715 -3.37696,2.22071 -0.58987,0.66695 -1.08715,1.41522 -1.4707,2.21875 0.46326,1.29249 1.02933,2.55 1.68946,3.7539 1.62433,2.96242 3.8026,5.57609 5.9414,8.19141 4.14343,5.06658 8.19324,10.21311 12.50781,15.13477 6.40704,7.30856 13.38015,14.10334 20.57422,20.63867 5.36317,4.87208 10.85513,9.60471 16.51172,14.13281 3.72607,2.98272 7.57044,5.90582 11.94336,7.81836 2.09736,0.9173 4.29121,1.58952 6.44141,2.375 2.39526,0.875 4.74724,1.89332 6.94336,3.18945 3.42556,2.02173 6.4192,4.6845 9.50586,7.19336 2.43652,1.98042 4.95895,3.88374 7.7539,5.31446 1.79644,0.91959 3.70587,1.64073 5.69141,2.00195 2.53832,0.46178 5.1568,0.33072 7.6914,0.8125 1.76046,0.33463 3.45771,0.96245 5.06641,1.75195 1.32928,0.65237 2.65208,1.43093 4.12695,1.5625 1.18892,0.10606 2.41022,-0.23736 3.37696,-0.9375 1.1308,-0.81896 1.88004,-2.07216 2.37695,-3.37695 0.56969,-1.4959 0.8451,-3.09337 0.9375,-4.69141 0.10832,-1.87343 -0.0316,-3.75065 0,-5.62695 0.0187,-1.11108 0.0997,-2.22416 0.31445,-3.31445 0.33323,-1.69191 0.98592,-3.30367 1.6875,-4.87891 0.73446,-1.64907 1.52868,-3.28002 2.06446,-5.00391 0.42093,-1.35444 0.67886,-2.80403 0.375,-4.18945 -0.37311,-1.70114 -1.56048,-3.12573 -2.93946,-4.18945 -1.49017,-1.14949 -3.21816,-1.94569 -4.8164,-2.93946 -1.18878,-0.73917 -2.33564,-1.61929 -3.06446,-2.81445 -0.86722,-1.42211 -1.05698,-3.22581 -0.5625,-4.8164 0.54745,-1.76095 1.92085,-3.2396 3.62696,-3.93946 1.45071,-0.59509 3.08291,-0.63692 4.6289,-0.375 1.01747,0.17238 2.00864,0.47024 3.00196,0.75 0.22457,0.0633 0.45043,0.12701 0.68164,0.1582 0.2312,0.0312 0.46852,0.0291 0.69336,-0.0332 0.30697,-0.085 0.57423,-0.28063 0.78711,-0.51758 0.21288,-0.23695 0.37701,-0.51409 0.52734,-0.79492 1.37395,-2.56667 1.80682,-5.51384 2.3125,-8.38086 1.7883,-10.13898 4.72,-20.03403 7.15625,-30.03711 1.94861,-8.00084 3.58186,-16.0761 5.21875,-24.14648 3.06293,-15.10125 6.14438,-30.20835 10.08203,-45.10547 0.73187,-2.76885 1.49389,-5.53212 2.05859,-8.33984 0.1009,-0.50166 0.20245,-1.02315 0.5,-1.43946 0.14818,-0.20732 0.34417,-0.38249 0.57227,-0.49609 0.2281,-0.11362 0.48974,-0.16361 0.74219,-0.12891 0.36527,0.0502 0.69228,0.27442 0.91992,0.56446 0.22764,0.29004 0.36348,0.64286 0.45508,1 0.29191,1.13789 0.14543,2.33625 0,3.50195 -0.3537,2.83519 -0.68992,5.67309 -1.0625,8.50586 -1.11202,8.45475 -2.54098,16.86414 -4.00196,25.26562 -2.0441,11.75476 -4.15314,23.50267 -6.75586,35.14649 -2.34384,10.48572 -5.08657,20.87764 -7.5664,31.33203 -1.23267,5.19667 -2.39996,10.40882 -3.50195,15.63477 23.44863,3.53397 47.41802,3.59529 70.88476,0.18359 22.19261,-3.22646 43.9316,-9.55707 64.38672,-18.75 -5.88336,-11.41508 -11.72061,-22.85229 -17.51172,-34.31445 -5.92234,-11.72189 -11.79798,-23.47217 -18.04297,-35.0254 -2.99777,-5.54586 -6.08469,-11.05208 -8.66797,-16.80273 -0.33246,-0.74008 -0.65708,-1.4841 -1.01757,-2.21094 -0.28773,-0.58013 -0.60314,-1.16957 -0.66211,-1.81445 -0.0604,-0.66097 0.16546,-1.33448 0.57421,-1.85742 0.25549,-0.32685 0.58565,-0.60255 0.97266,-0.75196 0.14197,-0.0548 0.29321,-0.0909 0.44531,-0.0957 0.15211,-0.005 0.30575,0.023 0.43946,0.0957 0.21315,0.11584 0.35364,0.32817 0.48633,0.53126 2.16468,3.31335 4.52083,6.49992 6.67773,9.81835 2.53466,3.8996 4.78803,7.97363 6.98633,12.07227 8.01395,14.94168 15.31619,30.25427 23.1914,45.26953 3.86554,7.37023 7.86931,14.66819 12.00782,21.88867 2.31381,-0.50169 4.60193,-1.11778 6.85546,-1.84375 5.12245,-1.65018 10.06089,-3.87398 14.68165,-6.63281 4.14282,-2.47348 8.0184,-5.3667 12.02929,-8.04883 2.4511,-1.63908 4.97001,-3.20829 7.69532,-4.33398 0.95654,-0.39511 1.97798,-0.73985 3.00585,-0.61914 0.67978,0.0798 1.33353,0.36655 1.85938,0.80469 0.52585,0.43813 0.92386,1.02531 1.14844,1.67187 0.40153,1.15599 0.24233,2.42745 0,3.62695 -0.51047,2.52677 -1.36783,4.97278 -2.38867,7.33985 -2.02635,4.69859 -4.69813,9.09862 -6.72071,13.79883 -0.70517,1.63873 -1.34167,3.33092 -2.38867,4.77539 -0.47854,0.66021 -1.03787,1.25908 -1.63672,1.8125 -2.46211,2.27532 -5.56878,3.75577 -8.04687,6.01367 -2.32701,2.12024 -4.00785,4.83801 -5.79493,7.42968 -1.53666,2.22852 -3.17177,4.38663 -4.86328,6.5 -2.74946,3.43518 -5.65009,6.75669 -8.18164,10.35547 -1.17199,1.66607 -2.28187,3.41207 -3.81445,4.75391 -1.42554,1.24813 -3.15472,2.09135 -4.87891,2.87695 -3.47227,1.58209 -7.02721,2.99436 -10.38086,4.81446 -1.94858,1.05754 -3.82161,2.24813 -5.6914,3.43945 -0.52769,0.33621 -1.06694,0.68529 -1.4375,1.18945 -0.31498,0.42854 -0.48929,0.9498 -0.54688,1.47852 -0.0576,0.52873 -0.003,1.06593 0.10938,1.58594 0.20551,0.9575 0.60832,1.87918 1.22656,2.63867 0.61824,0.7595 1.45711,1.35007 2.40039,1.61328 0.71482,0.19946 1.47274,0.21045 2.20899,0.11719 0.73623,-0.0932 1.45446,-0.28807 2.16796,-0.49219 3.7603,-1.07577 7.43043,-2.44574 11.07032,-3.87695 7.653,-3.00918 15.19403,-6.29273 22.76367,-9.50586 4.36393,-1.85238 8.75479,-3.69031 12.82031,-6.12891 3.65026,-2.18952 6.99876,-4.84153 10.31836,-7.50586 4.41519,-3.54365 8.81243,-7.13506 12.75977,-11.19336 1.96161,-2.01676 3.80978,-4.14806 5.43945,-6.4414 1.59308,-2.24185 2.98122,-4.64302 4.8164,-6.69141 1.24225,-1.38656 2.67179,-2.59279 4.12696,-3.75391 4.05457,-3.23524 8.33947,-6.16663 12.50781,-9.2539 3.44944,-2.55482 6.84494,-5.24022 9.63086,-8.50586 1.38093,-1.61871 2.62204,-3.40907 3.25195,-5.44141 0.55505,-1.79082 0.61263,-3.71573 0.3125,-5.56641 -0.26056,-1.60669 -0.80928,-3.20917 -1.875,-4.43945 -1.07362,-1.2394 -2.578,-2.00478 -4.0039,-2.81445 -1.78018,-1.01084 -3.52548,-2.16156 -4.81446,-3.75196 -1.04322,-1.28716 -1.74583,-2.81174 -2.43945,-4.3164 -0.48479,-1.05164 -0.98669,-2.12571 -1.8125,-2.9375 -0.91911,-0.9035 -2.21562,-1.41424 -3.50391,-1.37695 -1.01177,0.0293 -1.99398,0.38013 -2.87695,0.875 -1.24173,0.69594 -2.30494,1.66912 -3.50195,2.43945 -1.01777,0.65498 -2.13589,1.16405 -3.31446,1.43945 -1.45609,0.34025 -3.04563,0.30389 -4.37695,-0.37695 -0.26111,-0.13353 -0.51061,-0.29003 -0.72851,-0.48633 -0.21789,-0.19629 -0.4031,-0.43285 -0.52149,-0.70117 -0.21383,-0.48463 -0.19913,-1.03773 -0.12695,-1.5625 0.0729,-0.52999 0.20116,-1.05565 0.42187,-1.54297 0.22071,-0.48733 0.53801,-0.93644 0.95508,-1.27148 0.38874,-0.31228 0.85256,-0.51793 1.32422,-0.67969 0.47167,-0.16176 0.95651,-0.28425 1.42773,-0.44727 2.07614,-0.71824 3.84499,-2.28058 4.81446,-4.25195 l -89.61719,-93.30859 c -4.47677,-11.36513 -8.32105,-22.97945 -11.50781,-34.77149 -2.74052,-10.14081 -4.99507,-20.41323 -6.75391,-30.76953 -1.49003,-0.41718 -2.9909,-0.79191 -4.50195,-1.125 -1.78112,-0.39262 -3.57576,-0.72578 -5.37891,-1 -2.06768,-2.52281 -4.69252,-4.58756 -7.63086,-6.00391 -3.66032,-1.76436 -7.72309,-2.50431 -11.75586,-3.00195 -5.37829,-0.66368 -10.80046,-0.9287 -16.2207,-0.88867 z" /><path
   id="Haut"
   style="fill:#f0a483;fill-opacity:1;stroke:none;stroke-width:1px;stroke-linecap:butt;stroke-linejoin:miter;stroke-opacity:1"
   d="m 100.70588,-181.72875 c -3.07025,-0.0604 -6.15558,0.38862 -9.14454,1.12305 -2.72503,0.66957 -5.40431,1.58041 -7.87109,2.91797 -1.14415,0.62039 -2.13004,1.24388 -3.27344,2.12304 -1.1434,0.87916 -1.01608,1.99345 0.22461,2.59571 1.2407,0.60225 2.20977,1.13057 3.68946,2.11132 2.20522,1.46165 4.25381,3.14712 6.2539,4.87891 2.08089,1.80174 4.11715,3.65927 6.31641,5.31445 3.62376,2.72729 7.65759,4.87477 11.81836,6.67969 4.34996,1.88699 8.87044,3.41984 13,5.75 1.5753,0.88888 3.09719,1.89456 4.77734,2.56445 0.56588,0.22562 1.15146,0.41382 1.75781,0.47266 0.60635,0.0588 1.2372,-0.0189 1.7793,-0.29687 0.63945,-0.32784 1.1162,-0.91494 1.42773,-1.5625 0.31152,-0.64756 0.47325,-1.35654 0.60743,-2.0625 0.55334,-2.91131 0.70235,-5.91297 0.26367,-8.84375 -0.50023,-3.34197 -1.77985,-6.58028 -3.80274,-9.28711 -2.18796,-2.92771 -5.16649,-5.16242 -8.22461,-7.16407 -2.52054,-1.64978 -5.12952,-3.17338 -7.87109,-4.42187 -2.75943,-1.25662 -5.66491,-2.23575 -8.66797,-2.6543 -1.01613,-0.14162 -2.03715,-0.21814 -3.06054,-0.23828 z m -230.41211,10.10352 c -0.7165,0.0474 -1.42438,0.28071 -2.06641,0.61132 -0.51509,0.26525 -1.0036,0.5997 -1.36719,1.05079 -0.36358,0.45108 -0.59187,1.03046 -0.53906,1.60742 0.0414,0.45188 0.24832,0.87243 0.5,1.25 0.64944,0.97428 1.59433,1.70854 2.5332,2.4082 1.23029,0.91684 2.48069,1.80691 3.68946,2.75195 1.42721,1.11583 2.79342,2.30696 4.12695,3.53321 1.17215,1.07786 2.31893,2.18301 3.43945,3.31445 0.20558,-1.2985 0.63149,-2.56166 1.25195,-3.7207 0.70022,-1.30799 1.65019,-2.48165 2.78321,-3.43946 -1.11088,-1.00261 -2.30423,-1.91378 -3.56445,-2.7207 -1.14486,-0.73305 -2.34773,-1.38202 -3.44141,-2.18945 -1.50981,-1.11464 -2.79733,-2.51993 -4.37695,-3.53321 -0.68685,-0.44059 -1.4419,-0.80783 -2.25196,-0.90625 -0.23896,-0.029 -0.47796,-0.0334 -0.71679,-0.0176 z m -10.49805,6.23242 c -0.25308,0.003 -0.50447,0.032 -0.75195,0.0879 -0.85343,0.19261 -1.61355,0.68917 -2.25586,1.2832 -0.25291,0.2339 -0.49081,0.48468 -0.68164,0.77149 -0.19084,0.2868 -0.33301,0.6117 -0.37891,0.95312 -0.0654,0.487 0.0678,0.98571 0.30859,1.41406 0.20127,0.35811 0.47355,0.6706 0.75196,0.97266 1.19485,1.29635 2.53927,2.44529 3.84765,3.62695 2.85698,2.5803 5.55719,5.33268 8.49024,7.82617 1.72056,1.46271 3.52286,2.83821 5.13086,4.42383 0.58006,0.57199 1.13306,1.17067 1.63476,1.8125 0.5513,0.70528 1.05239,1.49886 1.15039,2.38867 0.0406,0.36861 0.008,0.74608 -0.11523,1.09571 -0.12363,0.34962 -0.34119,0.66856 -0.63672,0.89258 -0.3223,0.24432 -0.72842,0.369 -1.13281,0.375 -0.4044,0.006 -0.80569,-0.10149 -1.16602,-0.28516 -0.64608,-0.32933 -1.1452,-0.88283 -1.63672,-1.41602 -1.95738,-2.12331 -4.04176,-4.1242 -6.14648,-6.10156 -2.43261,-2.28541 -4.89491,-4.54044 -7.3418,-6.81055 -1.70617,-1.5829 -3.40587,-3.17392 -5.17383,-4.6875 -0.67277,-0.57597 -1.35947,-1.14311 -2.12304,-1.59179 -0.24298,-0.14278 -0.49311,-0.27404 -0.75977,-0.36524 -0.26667,-0.0912 -0.55095,-0.14149 -0.83203,-0.12109 -0.32535,0.0236 -0.63857,0.14172 -0.91406,0.31641 -0.27548,0.1747 -0.51332,0.40446 -0.72071,0.65625 -0.38957,0.47296 -0.67824,1.03556 -0.79687,1.63671 -0.1467,0.7434 -0.0266,1.53237 0.31055,2.21094 0.3469,0.6981 0.90458,1.26448 1.45898,1.8125 2.63293,2.60262 5.39553,5.06854 8.0918,7.60547 3.43556,3.23253 6.76798,6.58603 10.43554,9.55274 0.52015,0.42075 1.04946,0.83519 1.50391,1.32617 0.40769,0.44047 0.75695,0.94863 0.92969,1.52343 0.17274,0.57479 0.15555,1.22363 -0.13281,1.75 -0.2478,0.45229 -0.68454,0.78821 -1.17383,0.95118 -0.48928,0.16297 -1.02628,0.15854 -1.52344,0.0215 -0.46684,-0.12874 -0.8987,-0.36967 -1.2832,-0.66406 -0.56366,-0.43156 -1.02909,-0.97618 -1.50391,-1.50391 -2.63013,-2.9232 -5.67104,-5.44237 -8.53516,-8.13672 -1.83751,-1.72859 -3.60248,-3.53048 -5.4375,-5.26172 -0.73563,-0.69403 -1.48421,-1.37786 -2.16796,-2.12304 -0.32583,-0.3551 -0.64401,-0.73025 -1.06055,-0.97266 -0.3432,-0.19973 -0.74385,-0.30065 -1.14063,-0.28515 -0.39678,0.0155 -0.78891,0.14678 -1.11523,0.37304 -0.37297,0.2586 -0.65619,0.63742 -0.83008,1.05664 -0.17387,0.41922 -0.24077,0.87829 -0.23047,1.33203 0.0284,1.25076 0.63802,2.42299 1.41406,3.4043 0.59551,0.75303 1.29203,1.4192 1.99024,2.07813 3.72617,3.51651 7.57934,6.89748 11.36523,10.34961 1.85811,1.6943 3.70053,3.40474 5.57227,5.08398 0.48985,0.43947 0.98615,0.88225 1.37109,1.41602 0.27048,0.37505 0.48383,0.79999 0.54883,1.25781 0.0325,0.22892 0.0279,0.46447 -0.0254,0.68945 -0.0533,0.22498 -0.15484,0.43947 -0.30273,0.61719 -0.28786,0.34593 -0.74334,0.53425 -1.19336,0.53125 -0.38723,-0.003 -0.76496,-0.13668 -1.10157,-0.32813 -0.33661,-0.19144 -0.6378,-0.43952 -0.93359,-0.68945 -1.88915,-1.59621 -3.66781,-3.31968 -5.48438,-4.99805 -2.18315,-2.0171 -4.42893,-3.97542 -6.4121,-6.18945 -0.90868,-1.01446 -1.78542,-2.10272 -2.9629,-2.78711 -0.47536,-0.27631 -0.99911,-0.4815 -1.54687,-0.5293 -0.54268,-0.0474 -1.11084,0.07 -1.54687,0.39649 -0.30692,0.22981 -0.53784,0.55472 -0.68165,0.91015 -0.14383,0.35543 -0.2033,0.74158 -0.20312,1.125 5e-4,1.07183 0.45569,2.09191 1.01562,3.00586 0.8447,1.37877 1.93642,2.59 3.05274,3.75977 3.57083,3.74181 7.46964,7.15245 11.23242,10.70117 2.77557,2.61767 5.47696,5.3111 8.17969,8.00391 3.59593,3.58273 7.19355,7.1649 10.79101,10.74609 3.51402,0.30391 7.03269,0.55191 10.55469,0.74219 3.1666,0.17107 6.33563,0.29594 9.50586,0.375 1.3978,1.07282 2.75358,2.19949 4.06445,3.37695 1.36148,1.22292 2.67542,2.50022 4.06641,3.68945 0.32342,0.27654 0.65085,0.54995 1.01172,0.7754 0.36088,0.22544 0.75652,0.40392 1.17578,0.47656 0.45145,0.07822 0.92059,0.03079 1.35742,-0.10742 0.43683,-0.13822 0.8426,-0.36681 1.20703,-0.64454 0.73553,-0.56049 1.30186,-1.31716 1.75196,-2.125 0.49632,-0.89077 0.86094,-1.84844 1.1875,-2.81445 0.25134,-0.7435 0.48035,-1.49495 0.6875,-2.25195 0.27348,-1.76728 0.84787,-3.4885 1.68945,-5.06641 0.70783,-1.32713 1.61044,-2.56801 2.06445,-4.00195 0.1502,-0.47433 0.24963,-0.96945 0.23633,-1.4668 -0.0133,-0.49736 -0.14606,-0.99869 -0.42578,-1.41015 -0.26087,-0.38374 -0.63935,-0.67594 -1.05469,-0.88282 -0.41534,-0.20688 -0.86669,-0.33198 -1.32031,-0.42968 -0.95169,-0.2049 -1.9264,-0.28985 -2.87695,-0.5 -0.34753,-0.0768 -0.69353,-0.17115 -1.01758,-0.31836 -0.32405,-0.14721 -0.62766,-0.35094 -0.85938,-0.6211 -0.21313,-0.24847 -0.36084,-0.54702 -0.46484,-0.85742 -0.10399,-0.3104 -0.16546,-0.63275 -0.22266,-0.95508 -0.63591,-3.58579 -0.69305,-7.24561 -0.875,-10.88281 -0.17223,-3.44303 -0.45867,-6.87875 -0.68945,-10.31836 -0.0671,-1.00033 -0.1295,-2.00105 -0.1875,-3.00195 -0.41808,-0.77426 -0.87672,-1.5267 -1.375,-2.25195 -1.36652,-1.98899 -3.01685,-3.76434 -4.69141,-5.50196 -3.44732,-3.57713 -7.02902,-7.02419 -10.44336,-10.63281 -1.2192,-1.28858 -1.94455,-2.30837 -2.76562,-3.88086 -0.40934,-0.75643 -0.96615,-1.72365 -1.79883,-1.81055 -0.83268,-0.0869 -1.4889,0.24317 -2.00195,1.25196 -0.63606,1.14008 -0.9221,2.44877 -1,3.75195 -0.0612,1.02405 0.002,2.05553 0.1875,3.06445 0.87055,1.22574 1.78576,2.42011 2.74219,3.58008 1.63984,1.98882 3.40368,3.8765 5.30664,5.61524 0.84713,0.77402 1.72272,1.52184 2.47461,2.38867 0.27709,0.31945 0.53976,0.65771 0.73046,1.03515 0.19066,0.37743 0.30791,0.79835 0.28711,1.22071 -0.02,0.4056 -0.16977,0.80255 -0.41406,1.12695 -0.2443,0.3244 -0.58135,0.57628 -0.95703,0.73047 -0.45158,0.18531 -0.95312,0.22837 -1.4375,0.16797 -0.48437,-0.0604 -0.95289,-0.2216 -1.39258,-0.4336 -1.57421,-0.75901 -2.76026,-2.12599 -3.84765,-3.49414 -0.94843,-1.19331 -1.8576,-2.4154 -2.78516,-3.625 -1.62294,-2.11643 -3.30702,-4.20114 -5.26172,-6.01562 -1.75388,-1.62807 -3.70821,-3.02175 -5.61719,-4.46485 -2.34527,-1.77291 -4.63096,-3.62388 -6.94336,-5.43945 -1.57396,-1.23579 -3.16187,-2.45661 -4.64257,-3.80273 -0.39576,-0.35979 -0.78663,-0.73109 -1.23829,-1.01758 -0.64272,-0.40767 -1.40679,-0.62871 -2.16601,-0.61914 z m 34.09766,0.28515 c -0.15036,0.007 -0.30025,0.0284 -0.44532,0.0684 -0.35452,0.0978 -0.68258,0.31194 -0.88476,0.61914 -0.18179,0.27622 -0.25525,0.6149 -0.24219,0.94532 0.0131,0.33042 0.10868,0.65255 0.24219,0.95507 0.36736,0.83242 1.00977,1.50856 1.63672,2.16797 1.64546,1.73064 3.27243,3.47895 4.9082,5.21875 3.18592,3.38854 6.40469,6.74617 9.55273,10.16993 1.17247,1.27516 2.33386,2.55963 3.49219,3.84765 0.45335,0.5041 0.91427,1.01974 1.19531,1.63672 0.3072,0.6744 0.38117,1.4274 0.44141,2.16602 0.27724,3.39932 0.33301,6.81277 0.57422,10.21484 0.18736,2.6425 0.48748,5.27616 0.70898,7.91602 0.0924,1.10142 0.17815,2.2348 0.66211,3.22851 0.42465,0.87192 1.13129,1.57778 1.90235,2.16602 1.1125,0.84872 2.38097,1.48489 3.44921,2.38867 0.28711,0.2429 0.55767,0.50531 0.85743,0.73242 0.29976,0.22711 0.63379,0.42031 1,0.50586 0.46142,0.1078 0.94172,0.0378 1.41406,0 0.90672,-0.0725 1.83389,-0.0207 2.69726,0.26562 0.86792,0.28784 1.65635,0.81346 2.25586,1.50391 l 5.48438,-2.21094 c -0.32964,-0.80293 -0.77273,-1.27842 -0.97266,-2.12304 -0.36945,-1.56084 -0.33512,-3.52958 -0.24218,-5.13086 -2.56476,-1.34284 -5.03235,-2.86895 -7.37891,-4.56446 -1.26227,-0.91205 -2.49079,-1.87442 -3.62695,-2.93945 -0.34327,-0.32178 -0.68521,-0.66516 -0.875,-1.0957 -0.20963,-0.47556 -0.21508,-1.01157 -0.22071,-1.53125 -0.0242,-2.23135 -0.14979,-4.46025 -0.1875,-6.69141 -0.0209,-1.23558 -0.0158,-2.48449 -0.28125,-3.6914 -0.31966,-1.45336 -1.02978,-2.81114 -2,-3.93946 -0.63986,-0.74413 -1.40518,-1.36627 -2.12695,-2.03125 -6.384,-5.80047 -10.99652,-10.98136 -16.00586,-16.49804 -0.84147,-0.91721 -1.7748,-1.75229 -2.78711,-2.47657 -0.88805,-0.63538 -1.84205,-1.18916 -2.87305,-1.54883 -0.28418,-0.0991 -0.57665,-0.18296 -0.875,-0.22265 -0.14917,-0.0198 -0.29887,-0.0281 -0.44921,-0.0215 z m 172.58984,2.41407 c -0.34573,-0.003 -0.69026,0.0515 -1.01367,0.17382 -0.46218,0.17475 -0.86762,0.48075 -1.20703,0.83985 -0.33941,0.35909 -0.6161,0.77208 -0.8711,1.19531 -0.81743,1.35673 -1.41855,2.82923 -2.0332,4.28906 -1.11617,2.65098 -2.28622,5.28333 -3.62695,7.82813 -1.05441,2.00135 -2.22322,3.95951 -3.71485,5.66015 -1.60393,1.82867 -3.55854,3.33 -5.66015,4.55469 -1.2493,0.72801 -2.56331,1.36817 -3.66993,2.29883 -0.28059,0.23597 -0.54738,0.49203 -0.76757,0.78516 -0.22019,0.29313 -0.39331,0.62602 -0.47071,0.98437 -0.13445,0.62222 0.0337,1.29076 0.39844,1.8125 0.46178,0.66058 1.20976,1.08203 1.99023,1.2832 0.99268,0.25587 2.03935,0.18655 3.05079,0.35352 0.43596,0.072 0.87404,0.19127 1.23828,0.44141 0.29986,0.20593 0.53924,0.49562 0.70703,0.81836 0.16779,0.32275 0.26604,0.67803 0.31055,1.03906 0.11427,0.92734 -0.12047,1.85836 -0.22266,2.78711 -0.2007,1.82403 0.10594,3.65882 0.31055,5.48242 0.0437,0.38983 0.083,0.78414 0.20117,1.1582 0.11817,0.37406 0.32282,0.7322 0.63867,0.96485 0.22863,0.1684 0.50619,0.26338 0.78711,0.30468 0.28093,0.0414 0.56688,0.0322 0.84961,0.006 0.94507,-0.088 1.86189,-0.35596 2.78515,-0.57617 1.17941,-0.2813 2.37663,-0.48825 3.58204,-0.61914 0.12506,0.61815 0.12315,1.26198 -0.008,1.87891 -0.18051,0.85025 -0.62196,1.66412 -1.31445,2.18945 -0.40621,0.30816 -0.88591,0.50923 -1.37695,0.64648 -0.49105,0.13725 -0.99619,0.21272 -1.5,0.29102 -0.61165,0.0951 -1.24576,0.20346 -1.75,0.5625 -0.33008,0.23503 -0.58669,0.56947 -0.75196,0.93945 -0.21132,0.47303 -0.27748,0.99954 -0.27148,1.51758 0.006,0.51804 0.0832,1.03269 0.14648,1.54688 0.25038,2.03162 0.29589,4.08906 0.125,6.1289 -0.0379,0.45522 -0.087,0.91233 -0.0449,1.36719 0.0421,0.45487 0.18498,0.91279 0.48438,1.25781 0.19321,0.22266 0.4449,0.39128 0.71484,0.50977 0.26993,0.1185 0.5575,0.19009 0.84766,0.24219 1.08988,0.19569 2.20717,0.1169 3.31445,0.125 1.51559,0.01108 3.05602,0.19343 4.43945,0.8125 1.082,0.48417 2.03751,1.22227 3.12696,1.68945 1.6567,0.71043 3.5138,0.7537 5.3164,0.75 1.84686,-0.0038 3.71316,-0.04817 5.50391,-0.5 1.97889,-0.49931 3.80019,-1.47931 5.56641,-2.50195 1.90704,-1.10419 3.79346,-2.28194 5.37695,-3.81446 0.87944,-0.85112 1.6578,-1.80487 2.56445,-2.62695 0.27907,-0.25304 0.57415,-0.4957 0.91016,-0.66602 0.33601,-0.17034 0.7192,-0.26448 1.09179,-0.20898 0.39271,0.0586 0.74906,0.28232 1.01172,0.58008 0.26265,0.29776 0.4363,0.66473 0.55078,1.04492 0.33034,1.09703 0.17759,2.29099 -0.1875,3.37695 -0.50542,1.50337 -1.40341,2.85607 -2.5,4.00196 -0.93389,0.97586 -1.78677,1.69463 -3.2539,2.37695 -1.46713,0.68232 -9.11213,1.59395 -10.56641,3.2832 -0.07,0.07781 -0.11895,0.17694 -0.12695,0.28125 -0.007,0.08734 0.0147,0.17593 0.0547,0.25391 0.04,0.07798 0.0986,0.14527 0.16601,0.20117 0.13495,0.11181 0.30099,0.17764 0.4668,0.23437 1.26438,0.43266 2.61178,0.55352 3.94141,0.6875 4.58175,0.46175 9.15349,1.28863 13.75781,1.36524 4.82983,0.08037 9.60097,-0.24957 14.40234,-0.7793 4.10509,-0.45291 8.25496,-1.29026 12.36328,-1.71289 l -0.39258,-3.12109 c -0.47703,0.09614 -0.98079,0.05859 -1.4375,-0.10938 -0.66349,-0.24401 -1.20173,-0.74068 -1.68164,-1.25976 -0.43834,-0.47413 -0.85526,-0.99624 -1.03906,-1.61524 -0.19055,-0.64172 -0.11339,-1.33049 0,-1.99023 0.19388,-1.12808 0.48925,-2.23538 0.79688,-3.33789 0.49447,-1.77213 1.02378,-3.53521 1.59179,-5.28516 0.51537,-1.58779 1.06962,-3.2254 0.90625,-4.88672 -0.10866,-1.10498 -0.54479,-2.17982 -1.25976,-3.02929 -0.31494,-0.37419 -0.68407,-0.70625 -1.10742,-0.95118 -0.42334,-0.24493 -0.9019,-0.40112 -1.39063,-0.41992 -0.44738,-0.0172 -0.89485,0.0818 -1.31055,0.24805 -0.41571,0.16624 -0.80154,0.40014 -1.16601,0.66016 -0.97798,0.69772 -1.80524,1.58171 -2.6543,2.43164 -1.07183,1.07291 -2.19511,2.10271 -3.4414,2.96679 -1.03751,0.71931 -2.18053,1.3297 -3.42383,1.54883 -1.73352,0.30553 -3.54336,-0.18356 -5.04883,-1.0957 -0.93655,-0.56744 -1.77243,-1.29274 -2.50195,-2.10938 -0.32979,-0.36918 -0.63987,-0.76094 -0.88086,-1.19336 -0.24099,-0.43241 -0.41292,-0.90864 -0.44922,-1.40234 -0.0148,-0.20095 -0.007,-0.40529 0.0391,-0.60156 0.0456,-0.19628 0.13123,-0.38585 0.25977,-0.54102 0.20005,-0.2415 0.49409,-0.38889 0.79882,-0.46289 0.30473,-0.074 0.62198,-0.08 0.93555,-0.084 0.64099,-0.007 1.2828,-10e-4 1.92383,0 0.67229,0.001 1.34338,-7.7e-4 2.01562,-0.01 0.0511,0.5174 0.24029,1.01925 0.54102,1.44336 0.30073,0.42411 0.71222,0.76892 1.18359,0.98828 0.8752,0.40728 1.90648,0.36863 2.83008,0.0879 1.59814,-0.48576 2.90585,-1.63066 4.06836,-2.83008 1.84759,-1.90625 3.46397,-4.02484 4.99805,-6.1914 0.58753,-0.82975 1.17789,-1.69908 1.37109,-2.69727 0.20555,-1.06201 -0.0736,-2.18932 -0.66406,-3.0957 -0.65294,-1.00235 -1.66662,-1.74187 -2.78516,-2.16602 -1.332,-0.50509 -2.82138,-0.57498 -4.20117,-0.2207 -1.725,0.44291 -3.213,1.50257 -4.73242,2.43164 -0.80057,0.48952 -1.62637,0.95052 -2.51953,1.23828 -0.72574,0.23381 -1.49292,0.35044 -2.25391,0.30274 -0.76099,-0.0477 -1.51718,-0.26217 -2.16992,-0.65625 -1.04192,-0.62904 -1.76729,-1.67028 -2.34375,-2.74219 -1.15646,-2.15037 -1.84166,-4.59501 -1.67969,-7.03125 0.0668,-1.00469 0.27862,-2.00674 0.70703,-2.91797 0.35545,-0.75605 0.85329,-1.43568 1.32813,-2.12305 0.19427,-0.28121 0.38489,-0.56707 0.5332,-0.875 0.14832,-0.30793 0.25272,-0.64075 0.26172,-0.98242 0.008,-0.29785 -0.0591,-0.60104 -0.21094,-0.85742 -0.1518,-0.25638 -0.39125,-0.46409 -0.67383,-0.55859 -0.19015,-0.0636 -0.39602,-0.0742 -0.59375,-0.041 -0.19773,0.0332 -0.38595,0.11045 -0.55468,0.21875 -0.42357,0.27186 -0.69897,0.71584 -1.01758,1.10547 -0.54354,0.66468 -1.25867,1.20262 -2.07813,1.45898 -0.42943,0.1343 -0.90199,0.18941 -1.32812,0.0449 -0.42563,-0.14431 -0.77073,-0.47871 -0.98633,-0.87305 -0.2156,-0.39434 -0.31024,-0.84646 -0.33984,-1.29492 -0.0163,-0.24754 -0.0127,-0.49513 -0.0352,-0.74219 -0.0225,-0.24705 -0.0721,-0.49619 -0.18555,-0.7168 -0.14107,-0.27428 -0.38141,-0.4957 -0.66406,-0.61914 -0.38445,-0.1679 -0.8238,-0.15269 -1.23828,-0.0879 -0.33988,0.0532 -0.67398,0.13754 -1.01563,0.17774 -0.34163,0.0402 -0.69657,0.0339 -1.01757,-0.0899 -0.20238,-0.078 -0.38688,-0.20123 -0.53321,-0.36133 -0.14633,-0.1601 -0.25364,-0.35608 -0.30664,-0.5664 -0.0596,-0.23556 -0.0514,-0.48443 -0.004,-0.72266 0.0475,-0.23823 0.13311,-0.46835 0.22461,-0.69336 0.33931,-0.83408 0.77671,-1.63036 1.32617,-2.34375 0.2511,-0.32601 0.5306,-0.64335 0.66797,-1.03125 0.0686,-0.19395 0.0992,-0.4043 0.0664,-0.60742 -0.0328,-0.20312 -0.13327,-0.39761 -0.29297,-0.52734 -0.14991,-0.12178 -0.34408,-0.1805 -0.5371,-0.1875 -0.19302,-0.007 -0.38559,0.0353 -0.56836,0.0976 -0.56026,0.1913 -1.03571,0.56486 -1.50196,0.92969 -0.52944,0.41427 -1.06798,0.83098 -1.68164,1.10547 -0.67751,0.30306 -1.46446,0.42 -2.16601,0.17773 -0.5954,-0.20561 -1.07681,-0.6454 -1.54883,-1.0625 -1.71153,-1.51241 -3.54421,-2.88121 -5.30664,-4.33398 -1.12148,-0.92444 -2.21417,-1.88278 -3.31641,-2.83008 -0.69917,-0.60089 -1.42465,-1.21112 -2.29883,-1.50391 -0.32786,-0.10981 -0.67575,-0.17071 -1.02148,-0.17382 z m 158.55469,370.85547 c -0.33099,-0.006 -0.66642,0.0425 -0.98829,0.11914 -1.12206,0.26734 -2.13904,0.85752 -3.0957,1.50195 -1.59962,1.07754 -4.32267,3.38772 -5.66015,4.77734 0.68962,1.81493 1.25086,3.67674 1.67968,5.57031 0.30574,1.35006 0.55018,2.73312 1.15039,3.98047 0.6464,1.34335 1.72737,2.50404 3.09571,3.09571 0.94439,0.40835 2.00314,0.53759 3.02148,0.39062 1.01835,-0.14696 1.99295,-0.56606 2.81445,-1.18554 1.18791,-0.89578 2.06063,-2.19762 3.36133,-2.91993 0.86738,-0.48168 1.87194,-0.67195 2.74219,-1.14843 0.49472,-0.27087 0.94296,-0.63564 1.27734,-1.08985 0.33438,-0.4542 0.55144,-1.00116 0.58008,-1.56445 0.0399,-0.78562 -0.28197,-1.54904 -0.70703,-2.21094 -1.07421,-1.67276 -2.77327,-2.82101 -4.24609,-4.15625 -0.80846,-0.73294 -1.56366,-1.5396 -2.12305,-2.47656 -0.27389,-0.45875 -0.49918,-0.94631 -0.79297,-1.39258 -0.29379,-0.44626 -0.66796,-0.8585 -1.15234,-1.08398 -0.29997,-0.13964 -0.62605,-0.20067 -0.95703,-0.20703 z M -7.85077,253.53102 c -0.79525,0.0412 -1.5688,0.30071 -2.27539,0.66796 -0.70658,0.36725 -1.35085,0.84143 -1.97656,1.33399 -1.84989,1.45624 -3.60838,3.1769 -4.4414,5.37891 -0.18547,0.4902 -0.32204,1.00064 -0.35938,1.52343 -0.0373,0.5228 0.0274,1.05947 0.23438,1.54102 0.24423,0.56837 0.67647,1.03975 1.16601,1.41797 0.48954,0.37821 1.03815,0.66958 1.58594,0.95703 1.35009,0.70847 2.71359,1.40783 3.93945,2.31445 0.51907,0.38389 1.01275,0.80409 1.5625,1.14258 0.54976,0.33849 1.16898,0.59656 1.81445,0.60937 0.51072,0.0101 1.02153,-0.13545 1.46289,-0.39257 0.44138,-0.25713 0.81443,-0.62441 1.10157,-1.04688 0.62549,-0.9203 0.82642,-2.07934 0.75,-3.18945 -0.0245,-0.35587 -0.0743,-0.70829 -0.0937,-1.06445 -0.0195,-0.35618 -0.008,-0.71859 0.0937,-1.06055 0.11184,-0.37677 0.32791,-0.71646 0.56836,-1.02735 0.24044,-0.31088 0.50859,-0.59896 0.74609,-0.9121 0.57279,-0.75525 0.96539,-1.67949 0.9375,-2.62696 -0.0312,-1.05833 -0.5828,-2.04726 -1.3125,-2.81445 -0.25431,-0.26738 -0.5321,-0.51242 -0.81445,-0.75 -0.65653,-0.55242 -1.3515,-1.06812 -2.125,-1.43945 -0.79714,-0.38268 -1.6814,-0.60826 -2.56446,-0.5625 z" /><path
   style="fill:#000000;fill-opacity:1;stroke:none;stroke-width:1px;stroke-linecap:butt;stroke-linejoin:miter;stroke-opacity:1"
   d="m 69.2284,-149.65682 c -0.71562,-0.23162 -1.35606,-0.46118 -2.06379,-0.40651 -0.4244,0.0328 -0.84758,0.13696 -1.21951,0.34397 -0.59654,0.33201 -1.03588,0.92925 -1.18823,1.59474 -0.11223,0.49024 -0.0746,1.00344 0.0155,1.49821 0.0901,0.49477 0.2318,0.97885 0.32845,1.47239 0.20699,1.05706 0.20096,2.17335 -0.15635,3.18949 -0.22597,0.64262 -0.58493,1.22879 -0.87554,1.84489 -0.17928,0.38008 -0.3348,0.78101 -0.35696,1.20066 -0.0111,0.20983 0.012,0.42261 0.0803,0.62134 0.0683,0.19872 0.18264,0.38307 0.3392,0.52321 0.22803,0.20411 0.53445,0.3051 0.83947,0.33005 0.30502,0.025 0.61134,-0.0208 0.91162,-0.0799 1.42263,-0.27996 2.78156,-0.86104 4.22137,-1.03189 1.4915,-0.17698 2.99607,0.0944 4.47154,0.37523 0.90856,0.17295 1.82944,0.35076 2.75171,0.28143 0.24063,-0.0181 0.48227,-0.0536 0.70769,-0.1397 0.22542,-0.0861 0.43505,-0.22612 0.57436,-0.42315 0.125,-0.17681 0.18836,-0.3926 0.20203,-0.6087 0.0137,-0.2161 -0.0204,-0.43306 -0.077,-0.64208 -0.1385,-0.512 -0.40999,-0.97985 -0.73043,-1.40251 -0.32044,-0.42266 -0.69063,-0.80455 -1.05193,-1.19286 -1.04844,-1.12682 -2.03227,-2.32052 -2.84553,-3.62726 -0.36233,-0.5822 -0.69211,-1.18856 -1.1257,-1.71982 -0.35606,-0.43626 -0.77958,-0.81735 -1.25077,-1.1257 -0.82179,-0.48856 -1.7859,-0.64392 -2.50152,-0.87554 z"
   id="Auge" /><path
   id="Prada"
   style="fill:#ff0000;fill-opacity:1;stroke:none;stroke-width:1px;stroke-linecap:butt;stroke-linejoin:miter;stroke-opacity:1"
   d="m 244.2215,208.28688 c -0.71648,-0.0173 -1.44202,0.17585 -2.10352,0.46679 -1.14104,0.50185 -2.1422,1.28686 -3.00195,2.18945 -0.29235,0.30692 -0.57175,0.63022 -0.78906,0.99415 -0.21732,0.36392 -0.37259,0.7704 -0.40039,1.19335 -0.0331,0.50331 0.11616,1.0101 0.37109,1.44532 0.25492,0.43523 0.61273,0.80314 1.00586,1.11914 0.76814,0.61743 1.68376,1.04949 2.375,1.75195 0.62561,0.63577 1.03795,1.4804 1.15039,2.36524 0.11243,0.88484 -0.0744,1.80356 -0.52344,2.57421 -0.56268,0.96557 -1.49336,1.6571 -2.43945,2.25196 -2.04542,1.28606 -4.27325,2.24826 -6.44141,3.31445 -3.34949,1.64712 -6.57228,3.55194 -9.63085,5.69141 -0.79145,-0.10956 -2.45911,-0.1511 -3.25196,-0.25 -1.20911,-0.15083 -2.45942,-0.28617 -3.62695,0.0625 -0.42163,0.12592 -0.82647,0.31375 -1.18945,0.5625 -0.64739,0.44366 -1.14785,1.06634 -1.625,1.68945 -1.84631,2.41107 -3.47675,4.97893 -5.06641,7.56641 -0.55731,0.90713 -1.11199,1.82302 -1.5,2.81445 -0.54657,1.3966 -0.74581,2.89924 -1.00195,4.37695 -0.21227,1.22459 -0.4819,2.47882 -1.1875,3.50196 -0.32759,0.47501 -0.74009,0.88757 -1.1875,1.25195 -1.61696,1.3169 -3.64245,2.00968 -5.44141,3.06445 -1.19634,0.70144 -2.29266,1.5643 -3.31445,2.50196 -1.38159,1.26781 -2.62962,2.67356 -3.81446,4.12695 -2.1051,2.58224 -4.01489,5.31638 -6.0664,7.9414 -2.71071,3.4685 -5.66758,6.74331 -8.31836,10.25782 -1.31313,1.74101 -2.55873,3.54915 -4.12695,5.06445 -1.23507,1.1934 -2.65328,2.18574 -4.12891,3.06445 -2.49996,1.48868 -5.17279,2.66086 -7.75391,4.00391 -1.9364,1.00758 -3.8212,2.11229 -5.7539,3.12695 -0.46806,0.24573 -0.94752,0.49257 -1.3125,0.875 -0.1668,0.17478 -0.30866,0.37957 -0.37696,0.61133 -0.0683,0.23175 -0.0586,0.49208 0.0625,0.70117 0.0978,0.169 0.26197,0.2936 0.43946,0.375 0.37941,0.17411 0.82147,0.1611 1.22461,0.0527 0.40314,-0.10836 0.7762,-0.30519 1.15039,-0.49024 0.93757,-0.46366 1.90414,-0.86575 2.87695,-1.25 2.44867,-0.9672 4.94365,-1.81874 7.38086,-2.81445 3.92128,-1.60203 7.6805,-3.57242 11.56836,-5.25391 4.758,-2.05783 9.72603,-3.69316 14.19726,-6.3164 3.65686,-2.14546 6.90475,-4.90667 10.25586,-7.50391 4.3032,-3.33514 8.8201,-6.4318 12.69532,-10.25586 3.63656,-3.58854 6.64432,-7.75578 9.56836,-11.94531 1.71091,-2.45138 3.41139,-4.93149 5.5039,-7.06641 2.25729,-2.30304 4.92346,-4.15616 7.56641,-6.0039 3.05692,-2.13715 6.10535,-4.28693 9.19336,-6.37891 2.8294,-1.91678 5.70375,-3.79347 8.25586,-6.06641 0.47442,-0.42252 0.93937,-0.86278 1.3125,-1.37695 0.6256,-0.86207 0.97052,-1.91806 1.01172,-2.98242 0.0412,-1.06435 -0.21673,-2.13439 -0.69922,-3.08399 -0.66187,-1.30263 -1.73068,-2.36574 -2.9375,-3.18945 -1.34855,-0.92045 -2.88429,-1.57019 -4.12891,-2.62695 -0.88774,-0.75375 -1.6125,-1.71428 -2,-2.8125 -0.33864,-0.95976 -0.417,-2.00252 -0.81445,-2.93946 -0.2272,-0.53559 -0.55742,-1.03057 -0.98438,-1.42578 -0.42696,-0.39521 -0.95016,-0.68926 -1.51562,-0.82617 -0.23412,-0.0567 -0.47211,-0.086 -0.71094,-0.0918 z m -354.48047,9.45703 c -0.35349,0.0253 -0.70172,0.15761 -0.96875,0.39062 -0.24055,0.2099 -0.4099,0.49646 -0.5,0.80274 -0.0901,0.30628 -0.1028,0.63251 -0.0625,0.94921 0.0798,0.62659 0.36432,1.20728 0.6875,1.75 0.93457,1.56943 2.20826,2.90457 3.43945,4.25391 4.15483,4.55354 7.93809,9.43375 12.07032,14.00781 7.70715,8.53123 16.56558,15.92586 25.20312,23.51368 4.44684,3.9064 8.84806,7.87673 13.57031,11.44531 2.15617,1.62941 4.39828,3.18386 6.88086,4.25195 2.14452,0.92265 4.43068,1.4658 6.62891,2.25195 2.32091,0.83002 4.53698,1.92947 6.69141,3.12696 3.55163,1.9741 6.95211,4.22276 10.13086,6.7539 2.44309,1.94536 4.7514,4.05468 7.1914,6.00391 1.46482,1.17019 3.04233,2.31258 4.87891,2.68945 1.10829,0.2274 2.25554,0.16262 3.37695,0.3125 1.63184,0.2181 3.16369,0.88346 4.68945,1.50196 1.5589,0.63193 3.13739,1.22233 4.75391,1.6875 1.078,0.31023 2.20895,0.56523 3.31445,0.375 1.05626,-0.18176 2.03174,-0.77876 2.68946,-1.625 0.69712,-0.89693 1.02965,-2.03215 1.14648,-3.16211 0.11678,-1.12996 0.032,-2.26957 -0.0215,-3.4043 -0.078,-1.6544 -0.089,-3.33456 0.3125,-4.94141 0.2594,-1.03824 0.6874,-2.02623 1.12695,-3.00195 0.64675,-1.43567 1.33225,-2.88176 1.5625,-4.43945 0.15205,-1.02865 0.0941,-2.10741 -0.3125,-3.06446 -0.24624,-0.57966 -0.62033,-1.10816 -1.10547,-1.50976 -0.48513,-0.4016 -1.08295,-0.67339 -1.70898,-0.74219 -0.6245,-0.0686 -1.25002,0.061 -1.875,0.125 -1.67876,0.17194 -3.37238,-0.13133 -5.00391,-0.5625 -3.52301,-0.93103 -6.86372,-2.45488 -10.06836,-4.18945 -3.62379,-1.96144 -7.09799,-4.20301 -10.38086,-6.69336 -1.37104,-1.13816 -2.1079,-3.90861 -2.93945,-4.87695 -0.79344,-0.92396 -1.84265,-1.62878 -3.00195,-2.00196 -0.6474,-0.2084 -1.32457,-0.3142 -2.00196,-0.375 -0.95582,-0.0858 -1.91751,-0.0829 -2.87695,-0.0625 -2.2118,0.0471 -4.42018,0.18688 -6.62891,0.3125 -2.95819,0.16825 -5.91859,0.3106 -8.88086,0.375 -1.82713,0.0398 -3.7285,0.035 -5.3789,-0.75 -0.99562,-0.47354 -1.84622,-1.20984 -2.58594,-2.02734 -0.73972,-0.81749 -1.37734,-1.71926 -2.04102,-2.59961 -1.39985,-1.85688 -2.94689,-3.64722 -4.8789,-4.94141 -1.09382,-0.73272 -2.29236,-1.29269 -3.50196,-1.8125 -2.19093,-0.94154 -4.43388,-1.75746 -6.6289,-2.68945 -1.94927,-0.82765 -3.86188,-1.74793 -5.69141,-2.81445 -5.17828,-3.01868 -9.5986,-7.15013 -14.13281,-11.07032 -4.94889,-4.27872 -10.08046,-8.34175 -15.07227,-12.57031 -0.33204,-0.28127 -0.66805,-0.56622 -1.0625,-0.75 -0.32124,-0.14965 -0.67971,-0.22842 -1.0332,-0.20312 z" /></svg>
