<?xml version="1.0" encoding="utf-8" standalone="no"?>
<!DOCTYPE svg PUBLIC "-//W3C//DTD SVG 1.1//EN" "http://www.w3.org/Graphics/SVG/1.1/DTD/svg11.dtd">
<svg version="1.1"
   xmlns="http://www.w3.org/2000/svg"
   width="540" height="620" viewBox="0,0 54000,62000">
  <title>Wappen von Arlesheim</title>
  <desc>Wappen der Schweizer Gemeinde Arlesheim, Kanton Baselland</desc>
  <path d="M 450,450 h 53100 V 35000 A 26550,26550 0 0,1 450,35000 z" stroke="black" stroke-width="900" fill="white" />
  <path d="M 10591,46663 c 1001,3513 5307,10751 13076,9429 -2731,-2402 -5569,-9232 -5903,-12810 M 19075,44921 c 2094,7544 12217,15248 18916,9349 -6146,-1566 -12566,-6039 -15019,-12051 M 23939,42267 c 6288,9575 22090,11112 24076,616 -6207,2272 -15091,2244 -21374,-3386 M 28761,39087 c 12721,7468 25608,-4025 20793,-12448 -4611,5271 -12083,9787 -19699,9542 M 31872,34771 c 13522,-3268 25302,-25652 9286,-30373 211,10263 -3387,19836 -10157,26069 M 30712,27419 c 10905,-10892 5216,-24792 -3627,-23312 2129,3236 2564,12904 387,19975 M 26020,23308 c 297,-7737 737,-21144 -11317,-19346 2373,5997 3671,12575 4256,18862 M 16105,25485 c -709,-6987 -555,-23672 -13010,-21329 2613,7089 4367,14627 5272,22441" stroke="black" stroke-width="400" stroke-linecap="round" stroke-linejoin="round" fill="#0056ad" />
  <path d="M 16064,46673 c 646,3474 1512,4598 3047,6894 -1836,-1838 -3097,-3085 -3574,-6716 M 21622,43394 c 2921,5735 4744,7286 8284,10076 -3635,-1841 -6137,-3513 -8848,-9479 M 26393,41603 c 5213,3773 9621,4972 14113,5096 -4375,883 -9211,-232 -14343,-4307 M 30851,37518 c 9531,236 10955,-1183 15321,-3533 -3713,2954 -6393,4801 -15321,4351 M 32519,32168 c 9186,-7588 11243,-14098 12359,-19583 -549,5715 -2682,12740 -12100,20688 M 29100,23655 c 2570,-2296 3247,-9841 2579,-14607 1637,4967 510,13660 -2090,15712 M 22283,23126 c -399,-6729 -1085,-10512 -2648,-14749 1921,3218 3154,8555 3564,14248 M 11707,23858 c -684,-5712 -1940,-9760 -3156,-14058 1494,3401 3399,9003 4073,13556" />
  <path d="M 12804,46869 c 1534,3214 5071,2345 4219,-873 2139,4261 6941,1760 4880,-1833 4050,3869 7958,51 4898,-2609 3670,2429 8469,-2282 4471,-4307 6073,-831 5264,-5479 951,-5665 3639,-2602 1484,-8348 -1940,-5830 581,-5661 -4160,-7559 -6306,-3192 -1460,-3693 -5871,-4655 -6906,562 -2143,-3631 -6204,-2728 -6053,1708 -2014,-2560 -3303,-3011 -5704,-1862 2840,1726 2398,5772 3376,8380 749,1998 3337,3998 5587,3880 6064,-314 4225,-5783 8768,-7527 1271,-488 3431,-269 4113,1474 577,1476 -499,3183 -1590,3657 -1706,741 -3924,10 -5229,2095 -1419,2268 1142,5337 -1173,7051 -1988,1472 -2872,-1214 -5044,-1164 -3042,72 -4192,3532 -3531,5849" stroke="black" stroke-width="400" stroke-linecap="round" stroke-linejoin="round" fill="#0056ad" />
</svg>
