<?xml version="1.0" encoding="UTF-8" standalone="no"?>
<!-- Created with Inkscape (http://www.inkscape.org/) -->
<svg
   xmlns:svg="http://www.w3.org/2000/svg"
   xmlns="http://www.w3.org/2000/svg"
   version="1.0"
   width="362.13"
   height="408.82001"
   id="svg2">
  <defs
     id="defs4">
    <clipPath
       id="clipPath2752">
      <path
         d="M 0,42.5274 L 0,0 L 190.552,0 L 190.552,42.5274"
         id="path2754" />
    </clipPath>
    <clipPath
       id="clipPath2712">
      <path
         d="M -96.06331,-21.2637 L -96.06331,10.62607 L 44.82625,10.62607 L 44.82625,-21.2637 L -96.06331,-21.2637 z"
         id="path2714" />
    </clipPath>
    <clipPath
       id="clipPath2514">
      <path
         d="M 70.625,17.625 L 562.125,17.625 L 562.125,488.25 L 70.625,488.25 L 70.625,17.625 z"
         id="path2516" />
    </clipPath>
    <clipPath
       id="clipPath2506">
      <path
         d="M 70.625,17.625 L 562.125,17.625 L 562.125,488.25 L 70.625,488.25 L 70.625,17.625 z"
         id="path2508" />
    </clipPath>
    <clipPath
       id="clipPath2498">
      <path
         d="M -246.56044,-219.17569 L -246.56044,257.98967 L 344.83022,257.98967 L 344.83022,-219.17569 L -246.56044,-219.17569 z"
         id="path2500" />
    </clipPath>
    <clipPath
       id="clipPath2436">
      <path
         d="M 0,-281.76378 L 1190.5512,-281.76378 L 1190.5512,281.76378 L 0,281.76378 L 0,-281.76378 z"
         id="path2438" />
    </clipPath>
    <clipPath
       id="clipPath2426">
      <path
         d="M -1190.5512,-281.76378 L 0,-281.76378 L 0,281.76378 L -1190.5512,281.76378 L -1190.5512,-281.76378 z"
         id="path2428" />
    </clipPath>
    <clipPath
       id="clipPath2418">
      <path
         d="M 0,0 L 1190.5512,0 L 1190.5512,419.52756 L 0,419.52756 L 0,0 z"
         id="path2420" />
    </clipPath>
  </defs>
  <g
     transform="translate(-1.8404017,1.1802007)"
     id="layer1">
    <g
       transform="matrix(10.153848,0,0,10.153848,-3109.1739,-1491.4218)"
       id="g4520">
      <path
         d="M 307.60051,147.97931 L 307.56767,171.15072 C 307.56767,171.15072 308.3494,177.21175 313.04163,181.38331 C 317.73477,185.55495 321.51482,185.88187 324.22034,185.815 C 326.92401,185.75089 332.26846,185.2948 335.78855,181.38331 C 339.30862,177.47364 340.67598,175.40967 340.80732,171.15072 C 340.93685,166.9132 340.83924,147.97931 340.83924,147.97931 L 307.60051,147.97931"
         id="path2746"
         style="fill:#ffffff;fill-opacity:1;fill-rule:evenodd;stroke:none" />
      <path
         d="M 307.60051,147.97931 L 307.60051,170.2234 C 307.60051,170.2234 307.60051,170.52725 307.60051,170.6617 C 307.60051,174.67115 312.73239,185.91298 324.22034,185.815 C 337.22157,185.70457 340.83924,174.67115 340.83924,170.6617 C 340.83924,170.44256 340.83924,170.2234 340.83924,170.2234 L 340.83924,147.97931 L 307.60051,147.97931 z"
         id="path2756"
         style="fill:none;stroke:#000000;stroke-width:0.4560875;stroke-linecap:butt;stroke-linejoin:miter;stroke-miterlimit:3.8636899;stroke-dasharray:none;stroke-opacity:1" />
      <path
         d="M 338.04801,153.0061 L 335.55592,156.19336 L 338.04801,159.37706 L 334.04447,158.81328 L 332.52933,162.5644 L 331.01695,158.81328 L 327.01159,159.37706 L 329.50364,156.19247 L 327.01159,153.0061 L 331.01695,153.57086 L 332.52933,149.81971 L 334.04447,153.57086 L 338.04801,153.0061"
         id="path2758"
         style="fill:#be0027;fill-opacity:1;fill-rule:nonzero;stroke:none" />
      <path
         d="M 309.55439,150.35064 L 309.43488,150.62856 C 309.43488,150.62856 311.44806,154.33606 312.21884,157.13852 C 312.98872,159.94192 313.59988,161.79563 313.27149,164.0538 C 312.94311,166.31281 312.10755,167.71857 312.10755,167.71857 L 312.25078,167.90109 C 312.25078,167.90109 314.25755,167.83523 315.88761,168.77057 C 317.03605,169.43062 318.60042,170.33303 319.4004,171.14632 C 320.07085,171.82689 320.14017,172.1199 320.14017,172.1199 C 320.14017,172.1199 318.90692,172.95461 317.69099,173.47747 C 316.8089,173.85696 315.70061,174.21509 315.70061,174.21509 L 315.68876,174.43072 C 315.68876,174.43072 317.03876,175.13263 317.8871,176.1446 C 318.69895,177.11287 319.04008,177.76844 319.29185,178.38314 C 319.54271,178.99952 319.70598,179.76385 319.70598,179.76385 L 319.88658,179.83069 C 319.88658,179.83069 320.4348,179.01558 321.37526,178.05889 C 322.31663,177.10129 323.12939,176.47233 323.12939,176.47233 C 323.12939,176.47233 324.25043,178.07312 324.53139,179.66851 C 324.81234,181.26217 325.04768,183.90073 325.04768,183.90073 L 325.27115,183.98358 C 325.27115,183.98358 326.28916,182.43449 327.55253,181.25324 C 328.81223,180.07034 329.07312,179.93405 329.88037,179.38173 C 330.6767,178.8107 330.89474,178.61386 332.43629,177.83174 C 333.97786,177.0523 335.78215,176.62377 335.78215,176.62377 L 335.78032,176.38598 C 335.78032,176.38598 333.38039,175.2609 331.9793,174.45206 C 330.57637,173.64406 329.45621,172.04335 329.45621,172.04335 C 329.45621,172.04335 330.32551,171.49368 331.54692,170.93606 C 332.76742,170.37929 333.72063,170.14328 333.72063,170.14328 L 333.71974,169.95174 C 333.71974,169.95174 333.05657,169.5357 332.56492,169.08948 C 332.07326,168.64051 331.57247,168.09709 330.94032,167.00231 C 330.28175,165.85855 330.08379,164.35127 330.08379,164.35127 L 329.8749,164.28805 C 329.8749,164.28805 329.16069,165.20736 328.50208,165.90568 C 327.59538,166.86869 326.38675,167.74437 326.38675,167.74437 C 326.38675,167.74437 326.13682,167.5769 325.72724,166.71545 C 325.2365,165.68487 324.92362,163.90676 324.69741,162.60353 C 324.37448,160.75073 325.12248,158.88716 325.12248,158.88716 L 325.00208,158.6894 C 325.00208,158.6894 323.39482,158.99497 321.16,158.53176 C 318.92425,158.06673 317.3918,156.85701 315.02014,155.17604 C 312.65031,153.49511 309.8554,150.33368 309.8554,150.33368 L 309.55439,150.35064"
         id="path2760"
         style="fill:#000000;fill-opacity:1;fill-rule:evenodd;stroke:none" />
      <path
         d="M 309.55439,150.35064 L 309.43488,150.62856 C 309.43488,150.62856 311.44806,154.33606 312.21884,157.13852 C 312.98872,159.94192 313.59988,161.79563 313.27149,164.0538 C 312.94311,166.31281 312.10755,167.71857 312.10755,167.71857 L 312.25078,167.90109 C 312.25078,167.90109 314.25755,167.83523 315.88761,168.77057 C 317.03605,169.43062 318.60042,170.33303 319.4004,171.14632 C 320.07085,171.82689 320.14017,172.1199 320.14017,172.1199 C 320.14017,172.1199 318.90692,172.95461 317.69099,173.47747 C 316.8089,173.85696 315.70061,174.21509 315.70061,174.21509 L 315.68876,174.43072 C 315.68876,174.43072 317.03876,175.13263 317.8871,176.1446 C 318.69895,177.11287 319.04008,177.76844 319.29185,178.38314 C 319.54271,178.99952 319.70598,179.76385 319.70598,179.76385 L 319.88658,179.83069 C 319.88658,179.83069 320.4348,179.01558 321.37526,178.05889 C 322.31663,177.10129 323.12939,176.47233 323.12939,176.47233 C 323.12939,176.47233 324.25043,178.07312 324.53139,179.66851 C 324.81234,181.26217 325.04768,183.90073 325.04768,183.90073 L 325.27115,183.98358 C 325.27115,183.98358 326.28916,182.43449 327.55253,181.25324 C 328.81223,180.07034 329.07312,179.93405 329.88037,179.38173 C 330.6767,178.8107 330.89474,178.61386 332.43629,177.83174 C 333.97786,177.0523 335.78215,176.62377 335.78215,176.62377 L 335.78032,176.38598 C 335.78032,176.38598 333.38039,175.2609 331.9793,174.45206 C 330.57637,173.64406 329.45621,172.04335 329.45621,172.04335 C 329.45621,172.04335 330.32551,171.49368 331.54692,170.93606 C 332.76742,170.37929 333.72063,170.14328 333.72063,170.14328 L 333.71974,169.95174 C 333.71974,169.95174 333.05657,169.5357 332.56492,169.08948 C 332.07326,168.64051 331.57247,168.09709 330.94032,167.00231 C 330.28175,165.85855 330.08379,164.35127 330.08379,164.35127 L 329.8749,164.28805 C 329.8749,164.28805 329.16069,165.20736 328.50208,165.90568 C 327.59538,166.86869 326.38675,167.74437 326.38675,167.74437 C 326.38675,167.74437 326.13682,167.5769 325.72724,166.71545 C 325.2365,165.68487 324.92362,163.90676 324.69741,162.60353 C 324.37448,160.75073 325.12248,158.88716 325.12248,158.88716 L 325.00208,158.6894 C 325.00208,158.6894 323.39482,158.99497 321.16,158.53176 C 318.92425,158.06673 317.3918,156.85701 315.02014,155.17604 C 312.65031,153.49511 309.8554,150.33368 309.8554,150.33368 L 309.55439,150.35064 z"
         id="path2762"
         style="fill:none;stroke:#000000;stroke-width:0.77571362;stroke-linecap:butt;stroke-linejoin:miter;stroke-miterlimit:3.8636899;stroke-dasharray:none;stroke-opacity:1" />
    </g>
  </g>
</svg>
