<svg xmlns="http://www.w3.org/2000/svg" xmlns:xlink="http://www.w3.org/1999/xlink" xmlns:inkscape="http://www.inkscape.org/namespaces/inkscape" version="1.1" width="585.46px" height="257.418px" viewBox="0 0 585.46 257.418" transform="rotate(0) scale(1, 1)">
<defs>
<clipPath id="clip_0">
<path transform="matrix(1,0,0,-1,0,257.418)" d="M0 257.418H585.46V0H0Z"/>
</clipPath>
</defs>
<g inkscape:groupmode="layer" inkscape:label="Ebene 1">
<g clip-path="url(#clip_0)">
<path transform="matrix(1,0,0,-1,184.51,176.3141)" d="M0 0C0 0-.12-3.4-3.98-4.58-3.98-4.58-10-5.98-13.64-3.77-17.28-1.56-18.39 10.24-13.37 16.06-11.03 18.76-9.56 20.61-3.62 23.74-3.62 23.74 0 25.68 0 22.42V0ZM46.64-2.59C44.28-2.89 42.07-5.04 39.88-5.04 39.46-5.04 38.15-4.82 38-3.91V59.79C38 68.02 36.8 72.55 30.32 78.32 21.44 86.25 4.04 88.35-4.06 88.35-16.89 88.35-35.53 85.15-45.27 74.04-51.04 67.46-53.78 53.65-49.48 44.45-48.46 42.29-45.56 43.61-45.56 43.61L-17.49 51.7C-15.19 52.97-16.08 54.88-16.08 54.88-16.59 57.63-16.89 63.27-16.89 63.27-16.89 68.1-14.44 73.27-7.32 73.27-2.39 73.27-.23 70.6 0 66.74V41.23C-11.72 36.48-15.4 34.95-22.06 31.95-32.29 27.37-41.55 22.4-46.67 17.12-53.1 10.54-55.79 4.36-55.13-6.61-54.05-24.25-39.25-30.64-27.41-30.64-7.89-30.64-1.94-21.07 .28-19.66 .28-19.66 1.3-18.31 1.95-19.66 6.23-28.32 14.93-30.39 22.61-30.39 30.89-30.39 43.81-26.4 48.47-18.69 48.92-17.93 49.19-16.24 49.19-16.24V-5.43C49.18-4.15 48.76-2.29 46.64-2.59" fill="#ffffff"/>
<path transform="matrix(1,0,0,-1,291.42,99.854099)" d="M0 0V-88.83C0-97.54-2.89-121.1-18.4-133.07-35.45-146.24-57.68-153.57-59.1-154.12-62.22-155.33-67.49-147.09-62.07-142.01-59.82-139.9-48.19-128.55-45.86-125.46-43.53-122.37-39.55-118.27-38.37-109.5-34.92-83.87-36.57-42.21-36.57-40.54-36.57-38.87-37.19-35.37-40.62-34.21-44.04-33.05-52.53-32.28-53.72-31.53-54.91-30.77-54.95-22.29-54.18-21.03-53.41-19.78-30.8 3.34-27.05 4.19-23.35 5.03-5.19 5.04-3.85 5.04-.98 5.03 0 3.11 0 0" fill="#ffffff"/>
<path transform="matrix(1,0,0,-1,355.3,191.8341)" d="M0 0C-10.15 0-9.82 13.7-9.82 43.62-9.82 73.54-10.64 87.24 0 87.24 10.64 87.24 9.82 73.55 9.82 43.62 9.82 13.69 10.15 0 0 0M0 103.6C-27.07 103.6-49.02 84.81-49.02 43.75-49.02 2.69-27.07-16.1 0-16.1 27.07-16.1 49.02 2.69 49.02 43.75 49.02 84.81 27.07 103.6 0 103.6" fill="#ffffff"/>
<path transform="matrix(1,0,0,-1,78.2,178.77411)" d="M0 0C-2.15-7.5-6.22-15.25-11.39-15.25-21.32-15.25-20.6-.47-20.6 12.28V49.21C-20.6 52.19-20.6 56.35-19.4 58.86-17.96 61.95-15.09 63.41-12.82 63.41-1.91 63.41 3 40.27 3 24.41 2.99 16.08 2.15 7.72 0 0M2.92 90.59C-3.18 90.76-11.33 88.43-16.12 82.58-16.6 82.06-17.35 81.7-18.15 81.7-19.56 81.7-20.72 82.75-20.72 84.04V126.74C-20.72 130.38-23.98 133.33-28.01 133.33-32.26 133.33-34.26 132.34-34.26 132.34L-65.53 120.37C-68.55 118.99-70.64 116.12-70.64 112.79-70.7 108.93-68.16 106.12-64.24 104.6-58.35 101.65-59.67 96.93-59.49 86.84L-59.44-16.69C-59.44-17.38-59.02-17.85-58.3-18.37-47.96-26.56-28.13-30.51-14.44-30.51 14.17-30.51 44.21-7.85 44.21 32.41 44.21 65.02 30.97 89.84 2.92 90.59" fill="#ffffff"/>
<path transform="matrix(1,0,0,-1,570.28,93.504108)" d="M0 0C-7.8 6.33-22.09 7.26-32.43 2.67-42.77-1.91-54.53-18.39-55.57-19.53-56.72-20.79-58.59-19.9-58.59-18.67L-58.63-5.8C-58.63-3.68-60.45-1.86-62.7-1.91-77.12-2.6-100.47-3.05-100.47-3.05-102.95-3.41-104.59-4.93-104.59-7.13V-13.8C-104.59-15.1-103.93-16.23-102.89-16.92-102.89-16.92-101.07-18.22-99.92-18.96-94.24-21.91-94.43-32.17-94.28-42.27L-95.04-80.43C-95.04-83.82-101.51-86.71-106.96-85.91-111.12-85.29-116.12-82.71-116.12-78.77L-116.16-5.64C-116.16-3.52-117.98-1.7-120.26-1.75-134.65-2.44-156.74-2.89-156.74-2.89-159.22-3.25-160.86-4.77-160.86-6.97V-13.64C-160.86-14.94-160.2-16.07-159.16-16.76-159.16-16.76-157.37-18.06-156.22-18.8-150.54-21.75-150.73-35.87-150.56-45.97L-151.57-86.44C-151.57-99.95-139.92-110.88-125.53-110.88-121.93-110.88-119.27-110.19-116.13-108.98-110.62-106.94-99.8-99.96-99.8-99.96-97.19-98.31-94.8-99.76-94.8-102.02V-110.76C-94.8-112.14-93.63-113.39-92.23-113.19-82.3-111.73-64.07-109.96-54.61-109.44-52.13-109.3-49.34-109.44-49.34-107.78V-101.17C-49.34-98-53.29-98.39-55.37-97.59-57.48-96.77-58.34-95.61-58.34-90.79L-58.5-44.65C-58.42-36.22-55.04-29.98-49.91-24.9-45.06-20.09-38.42-14.99-34-21.65-30.78-26.5-25.87-38.21-11.49-38.26-2.93-38.29 3.88-31.11 6.41-23.66 8.94-16.19 7.8-6.33 0 0" fill="#ffffff"/>
<path transform="matrix(1,0,0,-1,272.8351,78.8712)" d="M0 0C5.508 4.681 17.128 17.064 10.644 34.022 10.579 34.193 10.494 34.356 10.409 34.518 13.314 38.45 16.272 40.42 19.113 40.333 23.349 40.204 26.198 35.629 26.227 35.583L26.244 35.594C26.346 34.538 26.402 33.469 26.402 32.388 26.402 16.438 15.049 3.09 0 0M-15.804 .623C-13.11 2.512-8.478 7.304-11.485 16.66-10.156 17.329-7.229 19.131-5.751 22.61-4.472 25.621-4.619 29.124-6.154 33.021-.057 39.256 5.739 36.483 7.988 34.949 8.521 34.587 8.94 34.058 9.169 33.459 16.452 14.41-.541 1.384-3.174-.489-4.32-.61-5.482-.674-6.659-.674-9.832-.674-12.898-.216-15.804 .623M-39.72 32.388C-39.72 35.294-39.34 38.113-38.632 40.801-36.162 33.705-28.922 17.963-13.047 16.359-9.654 6.098-16.142 2.074-17.766 1.251-30.548 5.824-39.72 18.053-39.72 32.388M-29.343 56.406C-29.198 54.078-28.547 50.395-26.036 47.699-24.118 45.64-21.474 44.542-18.165 44.43-18.293 42.44-18.258 37.614-15.324 34.674-13.78 33.126-11.687 32.347-9.084 32.347-8.614 32.348-8.122 32.382-7.618 32.433-6.247 28.946-6.095 25.854-7.197 23.244-8.644 19.82-11.84 18.219-12.582 17.887-29.69 19.389-36.369 38.469-37.82 43.422-36.049 48.407-33.114 52.842-29.343 56.406M18.7 53.571C-3.317 62.828-15.789 48.439-17.686 46.01-20.755 46.024-23.178 46.951-24.875 48.769-27.58 51.667-27.814 56.095-27.796 57.786-22.062 62.566-14.692 65.449-6.659 65.449 3.517 65.449 12.63 60.824 18.7 53.571M9.417 35.822C9.247 35.979 9.067 36.124 8.877 36.254 6.283 38.021-.409 41.239-7.355 34.049-10.35 33.66-12.658 34.241-14.203 35.786-17.041 38.625-16.643 43.907-16.538 44.92-15.183 46.771-2.745 62.48 20.7 50.926 23.18 47.278 24.944 43.109 25.805 38.622 24.356 40.112 22.077 41.818 19.173 41.912 15.848 41.994 12.567 39.949 9.417 35.822M27.982 32.388C27.982 39.698 25.7 46.482 21.818 52.078 21.818 52.078 21.747 52.177 21.747 52.178 15.48 61.145 5.087 67.027-6.659 67.027-15.287 67.027-23.182 63.849-29.253 58.611L-29.352 58.526C-29.352 58.526-30.072 57.886-30.423 57.556-36.63 51.694-40.207 43.623-41.121 35.135-41.22 34.222-41.284 33.297-41.299 32.388-41.607 13.289-25.76-2.253-6.659-2.253-5.313-2.253-3.988-2.167-2.681-2.017-2.681-2.017-2.583-2.01-2.589-2.005 14.6 .017 27.982 14.664 27.982 32.388" fill="#ffffff"/>
</g>
</g>
</svg>